<?xml version="1.0" standalone="no"?>
<!DOCTYPE svg PUBLIC "-//W3C//DTD SVG 1.1//EN" "http://www.w3.org/Graphics/SVG/1.1/DTD/svg11.dtd" >
<svg>
<metadata>
Created by FontForge 20090914 at Fri Aug  5 17:58:08 2016
 By www-data
Copyright &#194;&#169; 2014 by Jan Kovarik. All rights reserved.
</metadata>
<defs>
<font id="GLYPHICONSHalflings-Regular" horiz-adv-x="1200" >
  <font-face 
    font-family="GLYPHICONS Halflings"
    font-weight="400"
    font-stretch="normal"
    units-per-em="1200"
    panose-1="0 0 5 0 0 0 0 0 0 0"
    ascent="960"
    descent="-240"
    bbox="-175.89 -100 1500 1300"
    underline-thickness="50"
    underline-position="-50"
    unicode-range="U+0020-U+1F6AA"
  />
<missing-glyph horiz-adv-x="440" 
d="M40 0v800h320v-800h-320zM80 40h240v720h-240v-720z" />
    <glyph glyph-name=".notdef" horiz-adv-x="440" 
d="M40 0v800h320v-800h-320zM80 40h240v720h-240v-720z" />
    <glyph glyph-name="space" unicode=" " 
 />
    <glyph glyph-name="asterisk" unicode="*" 
d="M600 1100c10 0 21.333 -0.5 34 -1.5s22.667 -2.16699 30 -3.5l11 -1c6.66699 -1.33301 12.5 -4.83301 17.5 -10.5s7.5 -11.834 7.5 -18.501v-224l158 158c4.66699 4.66699 10.667 7.33398 18 8.00098s13.666 -1.33301 18.999 -6l106 -106
c4.66699 -5.33301 6.66699 -11.666 6 -18.999s-3.33398 -13.333 -8.00098 -18l-158 -158h224c6.66699 0 12.834 -2.5 18.501 -7.5s9.16699 -10.833 10.5 -17.5c4 -27.333 6 -52.333 6 -75c0 -10 -0.5 -21.333 -1.5 -34s-2.16699 -22.667 -3.5 -30l-1 -11
c-1.33301 -6.66699 -4.83301 -12.5 -10.5 -17.5s-11.834 -7.5 -18.501 -7.5h-224l158 -158c4.66699 -4.66699 7.33398 -10.667 8.00098 -18s-1.33301 -13.666 -6 -18.999l-106 -106c-5.33301 -4.66699 -11.666 -6.66699 -18.999 -6s-13.333 3.33398 -18 8.00098l-158 158
v-224c0 -6.66699 -2.5 -12.834 -7.5 -18.501s-10.833 -9.16699 -17.5 -10.5c-27.333 -4 -52.333 -6 -75 -6c-10 0 -21.333 0.5 -34 1.5s-22.667 2.16699 -30 3.5l-11 1c-6.66699 1.33301 -12.5 4.83301 -17.5 10.5s-7.5 11.834 -7.5 18.501v224l-158 -158
c-4.66699 -4.66699 -10.667 -7.33398 -18 -8.00098s-13.666 1.33301 -18.999 6l-106 106c-4.66699 5.33301 -6.66699 11.666 -6 18.999s3.33398 13.333 8.00098 18l158 158h-224c-6.66699 0 -12.834 2.5 -18.501 7.5s-9.16699 10.833 -10.5 17.5c-4 27.333 -6 52.333 -6 75
c0 10 0.5 21.333 1.5 34s2.16699 22.667 3.5 30l1 11c1.33301 6.66699 4.83301 12.5 10.5 17.5s11.834 7.5 18.501 7.5h224l-158 158c-4.66699 4.66699 -7.33398 10.667 -8.00098 18s1.33301 13.666 6 18.999l106 106c5.33301 4.66699 11.666 6.66699 18.999 6
s13.333 -3.33398 18 -8.00098l158 -158v224c0 6.66699 2.5 12.834 7.5 18.501s10.833 9.16699 17.5 10.5c27.333 4 52.333 6 75 6z" />
    <glyph glyph-name="plus" unicode="+" 
d="M450 1100h200c14 0 25.833 -4.83301 35.5 -14.5s14.5 -21.5 14.5 -35.5v-350h350c14 0 25.833 -4.83301 35.5 -14.5s14.5 -21.5 14.5 -35.5v-200c0 -14 -4.83301 -25.833 -14.5 -35.5s-21.5 -14.5 -35.5 -14.5h-350v-350c0 -14 -4.83301 -25.833 -14.5 -35.5
s-21.5 -14.5 -35.5 -14.5h-200c-14 -0 -25.833 4.83301 -35.5 14.5s-14.5 21.5 -14.5 35.5v350h-350c-14 0 -25.833 4.83301 -35.5 14.5s-14.5 21.5 -14.5 35.5v200c-0 14 4.83301 25.833 14.5 35.5s21.5 14.5 35.5 14.5h350v350c0 14 4.83301 25.833 14.5 35.5
s21.5 14.5 35.5 14.5z" />
    <glyph glyph-name="uni00A0" unicode="&#xa0;" 
 />
    <glyph glyph-name="yen" unicode="&#xa5;" 
d="M825 1100h249.996c6.66699 0 10.834 -1.66699 12.501 -5s-0.166016 -7.66602 -5.49902 -12.999l-364 -364c-4 -4 -7.66699 -10 -11 -18h268c6.66699 0 11 -2 13 -6s1 -8.66699 -3 -14l-120 -160c-4 -5.33301 -10 -10 -18 -14s-15.333 -6 -22 -6h-125v-100h275
c6.66699 0 11 -2 13 -6s1 -8.66699 -3 -14l-120 -160c-4 -5.33301 -10 -10 -18 -14s-15.333 -6 -22 -6h-125v-174c0 -7.33301 -2.5 -13.5 -7.5 -18.5s-11.167 -7.5 -18.5 -7.5h-148c-7.33301 0 -13.5 2.5 -18.5 7.5s-7.5 11.167 -7.5 18.5v174h-275c-6.66699 0 -11 2 -13 6
s-1 8.66699 3 14l120 160c4 5.33301 10 10 18 14s15.333 6 22 6h125v100h-275c-6.66699 0 -11 2 -13 6s-1 8.66699 3 14l120 160c4 5.33301 10 10 18 14s15.333 6 22 6h118c-3.33301 8 -7 14 -11 18l-364 364c-5.33301 5.33301 -7.16602 9.66602 -5.49902 12.999
s5.83398 5 12.501 5h250c16.667 0 31 -6 43 -18l164 -164c5.33301 -5.33301 11.333 -8 18 -8s12.667 2.66699 18 8l164 164c12 12 26.333 18 43 18z" />
    <glyph glyph-name="uni2000" unicode="&#x2000;" horiz-adv-x="650" 
 />
    <glyph glyph-name="uni2001" unicode="&#x2001;" horiz-adv-x="1300" 
 />
    <glyph glyph-name="uni2002" unicode="&#x2002;" horiz-adv-x="650" 
 />
    <glyph glyph-name="uni2003" unicode="&#x2003;" horiz-adv-x="1300" 
 />
    <glyph glyph-name="uni2004" unicode="&#x2004;" horiz-adv-x="433" 
 />
    <glyph glyph-name="uni2005" unicode="&#x2005;" horiz-adv-x="325" 
 />
    <glyph glyph-name="uni2006" unicode="&#x2006;" horiz-adv-x="216" 
 />
    <glyph glyph-name="uni2007" unicode="&#x2007;" horiz-adv-x="216" 
 />
    <glyph glyph-name="uni2008" unicode="&#x2008;" horiz-adv-x="162" 
 />
    <glyph glyph-name="uni2009" unicode="&#x2009;" horiz-adv-x="260" 
 />
    <glyph glyph-name="uni200A" unicode="&#x200a;" horiz-adv-x="72" 
 />
    <glyph glyph-name="uni202F" unicode="&#x202f;" horiz-adv-x="260" 
 />
    <glyph glyph-name="uni205F" unicode="&#x205f;" horiz-adv-x="325" 
 />
    <glyph glyph-name="Euro" unicode="&#x20ac;" 
d="M744 1198c161.333 0 279.332 -63.0029 353.999 -189.003c40 -69.333 62 -139 66 -209h-181c0 30 -5.83301 57.5 -17.5 82.5s-26.167 45.5 -43.5 61.5s-36.666 29.5 -57.999 40.5s-41.5 19 -60.5 24s-36.167 7.5 -51.5 7.5c-12.667 0 -26.167 -1.83301 -40.5 -5.5
s-30.833 -10.5 -49.5 -20.5s-36.334 -22.667 -53.001 -38s-33 -36.166 -49 -62.499s-29 -56.166 -39 -89.499h379l-100 -100h-300c-4 -33.333 -6 -66.666 -6 -99.999h406l-100 -100h-300c6 -49.333 17 -93.333 33 -132s33.5 -69 52.5 -91s39.5 -40.167 61.5 -54.5
s41.667 -24 59 -29s33 -7.5 47 -7.5c14.667 0 31.5 2.5 50.5 7.5s39.167 13.167 60.5 24.5s40.666 25 57.999 41s31.833 36.333 43.5 61s17.5 51.334 17.5 80.001h174c-20 -114 -62.667 -206.667 -128 -278c-71.333 -78 -162.666 -117 -273.999 -117
c-137.333 0 -245.333 52.667 -324 158c-24 32 -47 76.333 -69 133s-37 124.667 -45 204h-217l100 100h112c0.666992 31.333 2.66699 64.666 6 99.999h-218l100 100h134c13.333 58 30.333 109.167 51 153.5s41.334 78.833 62.001 103.5c78 94 177 141 297 141z" />
    <glyph glyph-name="uni20BD" unicode="&#x20bd;" 
d="M428 1200h350.001c44.667 0 84.667 -4.33301 120 -13s64 -19 86 -31s41 -28.5 57 -49.5s27.667 -39.833 35 -56.5s13 -38.167 17 -64.5s6.16699 -46.5 6.5 -60.5s0.5 -33 0.5 -57v-16.5v-16.5c0 -24 -0.166992 -43 -0.5 -57s-2.5 -34.333 -6.5 -61
s-9.66699 -48.334 -17 -65.001s-19 -35.667 -35 -57s-35 -38.166 -57 -50.499s-50.667 -22.833 -86 -31.5s-75.333 -13 -120 -13h-178l-2 -100h288c6.66699 0 11 -2 13 -6s1 -8.66699 -3 -14l-120 -160c-4 -5.33301 -10 -10 -18 -14s-15.333 -6 -22 -6h-138v-175
c0 -7.33301 -1.83301 -13.333 -5.5 -18s-8.83398 -7 -15.501 -7h-149c-6.66699 0 -12.5 2.5 -17.5 7.5s-7.5 10.833 -7.5 17.5v175h-267c-6.66699 0 -11 2 -13 6s-1 8.66699 3 14l120 160c4 5.33301 10 10 18 14s15.333 6 22 6h117v100h-267c-6.66699 0 -11 2 -13 6
s-1 8.66699 3 14l120 160c4 5.33301 10 10 18 14s15.333 6 22 6h117v475c0 6.66699 2.5 12.5 7.5 17.5s10.833 7.5 17.5 7.5zM600.001 1000v-300h203c42.667 0 71.5 11 86.5 33s22.5 61.667 22.5 119c0 56 -7.5 94.667 -22.5 116s-43.833 32 -86.5 32h-203z" />
    <glyph glyph-name="minus" unicode="&#x2212;" 
d="M250 700h800c14 0 25.833 -4.83301 35.5 -14.5s14.5 -21.5 14.5 -35.5v-200c0 -14 -4.83301 -25.833 -14.5 -35.5s-21.5 -14.5 -35.5 -14.5h-800c-14 0 -25.833 4.83301 -35.5 14.5s-14.5 21.5 -14.5 35.5v200c0 14 4.83301 25.833 14.5 35.5s21.5 14.5 35.5 14.5z" />
    <glyph glyph-name="uni231B" unicode="&#x231b;" 
d="M1000 1200v-150c0 -14 -4.83301 -25.833 -14.5 -35.5s-21.5 -14.5 -35.5 -14.5h-50v-100c0 -60.667 -16.5 -115.834 -49.5 -165.501s-76.5 -86.167 -130.5 -109.5c54 -23.333 97.5 -59.833 130.5 -109.5s49.5 -104.834 49.5 -165.501v-150h50
c14 0 25.833 -4.83301 35.5 -14.5s14.5 -21.5 14.5 -35.5v-150h-800v150c0 14 4.83301 25.833 14.5 35.5s21.5 14.5 35.5 14.5h50v150c0 60.667 16.5 115.834 49.5 165.501s76.5 86.167 130.5 109.5c-54 23.333 -97.5 59.833 -130.5 109.5s-49.5 104.834 -49.5 165.501v100
h-50c-14 0 -25.833 4.83301 -35.5 14.5s-14.5 21.5 -14.5 35.5v150h800zM400 1000v-100c0 -40 10.833 -76.5 32.5 -109.5s50.834 -57.5 87.501 -73.5c18.667 -8 33.334 -20.333 44.001 -37s16 -35 16 -55s-5.33301 -38.333 -16 -55s-25.334 -29 -44.001 -37
c-36.667 -16 -65.834 -40.5 -87.501 -73.5s-32.5 -69.5 -32.5 -109.5v-150h400v150c0 40 -10.833 76.5 -32.5 109.5s-50.834 57.5 -87.501 73.5c-18.667 8 -33.334 20.333 -44.001 37s-16 35 -16 55s5.33301 38.333 16 55s25.334 29 44.001 37
c36.667 16 65.834 40.5 87.501 73.5s32.5 69.5 32.5 109.5v100h-400z" />
    <glyph glyph-name="uni25FC" unicode="&#x25fc;" horiz-adv-x="500" 
d="M0 0z" />
    <glyph glyph-name="uni2601" unicode="&#x2601;" 
d="M503 1089c73.333 0 140.169 -19.8311 200.502 -59.498s105.166 -91.834 134.499 -156.501c29.333 9.33301 59.333 14 90 14c80 0 148.333 -28.833 205 -86.5s85 -126.5 85 -206.5c0 -80.667 -28.333 -149.834 -85 -207.501s-125 -86.5 -205 -86.5h-750
c-52.667 0 -97.834 19 -135.501 57s-56.5 83.667 -56.5 137c0 46 14.167 86.833 42.5 122.5s64.5 58.167 108.5 67.5c-1.33301 8 -2 20.333 -2 37c0 102 36 188.833 108 260.5s158.667 107.5 260 107.5z" />
    <glyph glyph-name="uni26FA" unicode="&#x26fa;" 
d="M774 1193.5c10.667 -6.33301 17.5 -15.332 20.5 -26.999s1.16699 -22.834 -5.5 -33.501l-136 -187l467 -746h30c13.333 0 25 -6.16699 35 -18.5s15 -25.5 15 -39.5v-42h-1200v42c0 14 5 27.167 15 39.5s21.667 18.5 35 18.5h30l468 746l-135 183
c-6.66699 10.667 -8.5 22 -5.5 34s9.83301 21.333 20.5 28s22 8.5 34 5.5s21.333 -9.83301 28 -20.5l111 -148l112 150c6 10.667 15 17.5 27 20.5s23.333 1.33301 34 -5zM600 200.001h377l-182 112l-195 534v-646z" />
    <glyph glyph-name="uni2709" unicode="&#x2709;" 
d="M25 1100h1150c6.66699 0 10.834 -1.66699 12.501 -5s-0.166016 -7.66602 -5.49902 -12.999l-564 -567c-5.33301 -5.33301 -11.333 -8 -18 -8s-12.667 2.66699 -18 8l-564 567c-5.33301 5.33301 -7.16602 9.66602 -5.49902 12.999s5.83398 5 12.501 5zM17.9961 882
l264 -264.004c5.33301 -5.33301 8 -11.333 8 -18s-2.66699 -12.667 -8 -18l-264 -264c-5.33301 -5.33301 -9.66602 -7.16602 -12.999 -5.49902s-5 5.83398 -5 12.501v550c0 6.66699 1.66699 10.834 5 12.501s7.66602 -0.166016 12.999 -5.49902zM917.996 617.996
l264 264.004c5.33301 5.33301 9.66602 7.16602 12.999 5.49902s5 -5.83398 5 -12.501v-550c0 -6.66699 -1.66699 -10.834 -5 -12.501s-7.66602 0.166016 -12.999 5.49902l-264 264c-5.33301 5.33301 -8 11.333 -8 18s2.66699 12.667 8 18zM817.996 482l364.004 -364
c5.33301 -5.33301 7.16602 -9.66602 5.49902 -12.999s-5.83398 -5 -12.501 -5h-1150c-6.66699 0 -10.834 1.66699 -12.501 5s0.166016 7.66602 5.49902 12.999l364 364c5.33301 5.33301 11.333 8 18 8s12.667 -2.66699 18 -8l164 -164c5.33301 -5.33301 11.333 -8 18 -8
s12.667 2.66699 18 8l164 164c5.33301 5.33301 11.333 8 18 8s12.667 -2.66699 18 -8z" />
    <glyph glyph-name="uni270F" unicode="&#x270f;" 
d="M1011 1210c12.667 0 23.666 -4.33301 32.999 -13l153 -153c8.66699 -9.33301 13 -20.333 13 -33s-4.33301 -23.667 -13 -33l-99 -92l-214 214l95 96c8.66699 9.33301 19.334 14 32.001 14zM1013 800l-615 -614l-214 214l614 614zM316.999 96l-333 -112l110 335z" />
    <glyph glyph-name="uniE001" unicode="&#xe001;" 
d="M700 650v-550h250c14 0 25.833 -4.83301 35.5 -14.5s14.5 -21.5 14.5 -35.5v-50h-800v50c0 14 4.83301 25.833 14.5 35.5s21.5 14.5 35.5 14.5h250v550l-500 550h1200z" />
    <glyph glyph-name="uniE002" unicode="&#xe002;" 
d="M368 1017l645 162.997c26 10 47 10 63 0s24 -26.333 24 -49v-831c0 -36.667 -13.833 -68.5 -41.5 -95.5s-64.834 -48.167 -111.501 -63.5c-52.667 -16.667 -101.667 -18.167 -147 -4.5s-74 38.667 -86 75s-3.5 73.5 25.5 111.5s69.833 65.333 122.5 82
c48 16 94 18.667 138 8v521l-600 -155v-606c0 -28 -14.667 -58 -44 -90s-65.666 -55 -108.999 -69c-52.667 -17.333 -101.667 -19.166 -147 -5.49902s-74 38.834 -86 75.501s-3.5 73.834 25.5 111.501s69.833 65.167 122.5 82.5c48 16 94 18.333 138 7v639
c0 25.333 4.83301 45 14.5 59s27.5 25.333 53.5 34z" />
    <glyph glyph-name="uniE003" unicode="&#xe003;" 
d="M500 1191c66.667 0 130.333 -13.0029 191 -39.0029s112.834 -60.833 156.501 -104.5s78.5 -95.834 104.5 -156.501s39 -124.334 39 -191.001l-1 -2l1 -5c0 -94 -26 -181.333 -78 -262l275 -274c15.333 -17.333 22.833 -32.166 22.5 -44.499s-7.83301 -26.5 -22.5 -42.5
l-59 -58c-17.333 -13.333 -32.833 -20 -46.5 -20s-26.834 6.66699 -39.501 20l-275 274c-79.333 -51.333 -166.333 -77 -261 -77l-5 1l-2 -1c-66.667 0 -130.334 13 -191.001 39s-112.834 60.833 -156.501 104.5s-78.5 95.834 -104.5 156.501s-39 124.334 -39 191.001
s13 130.334 39 191.001s60.833 112.834 104.5 156.501s95.834 78.5 156.501 104.5s124.334 39 191.001 39zM499.999 1022c-58.667 0 -112.667 -14.333 -162 -43s-88.333 -67.667 -117 -117s-43 -103.333 -43 -162s14.333 -112.667 43 -162s67.667 -88.333 117 -117
s103.333 -43 162 -43s112.667 14.333 162 43s88.333 67.667 117 117s43 103.333 43 162s-14.333 112.667 -43 162s-67.667 88.333 -117 117s-103.333 43 -162 43z" />
    <glyph glyph-name="uniE005" unicode="&#xe005;" 
d="M649 949c32 45.333 68.5 80 109.5 104s81.5 36.833 121.5 38.5s79.5 -5 118.5 -20s73.167 -36.333 102.5 -64s53 -61.167 71 -100.5s27 -80.333 27 -123c0 -38 -11.167 -77.167 -33.5 -117.5s-53.666 -81.833 -93.999 -124.5l-126.5 -127.5
c-44 -42.333 -94 -93.166 -150 -152.499s-104.667 -117.333 -146 -174c-41.333 56.667 -89.833 114.667 -145.5 174s-105.667 110.166 -150 152.499s-86.5 84.833 -126.5 127.5s-71.167 84.167 -93.5 124.5s-33.5 79.5 -33.5 117.5c0 42.667 9.33301 83.667 28 123
s43 72.833 73 100.5s64.667 49 104 64s79 21.667 119 20s80.167 -14.5 120.5 -38.5s75.166 -58.667 104.499 -104z" />
    <glyph glyph-name="uniE006" unicode="&#xe006;" 
d="M407 800l131 353c4.66699 12.667 10.5 19 17.5 19s12.833 -6.33301 17.5 -19l129 -353h421c14 0 22 -2.83301 24 -8.5s-2.66699 -12.5 -14 -20.5l-342 -249l130 -401c4.66699 -13.333 4.5 -21.833 -0.5 -25.5s-13.167 -1.5 -24.5 6.5l-343 246l-342 -247
c-11.333 -8 -19.5 -10.167 -24.5 -6.5s-5.16699 12.167 -0.5 25.5l130 400l-347 251c-11.333 8 -16 14.833 -14 20.5s9.66699 8.5 23 8.5h429z" />
    <glyph glyph-name="uniE007" unicode="&#xe007;" 
d="M407 800l131 353c4.66699 12.667 10.5 19 17.5 19s12.833 -6.33301 17.5 -19l129 -353h421c14 0 22 -2.83301 24 -8.5s-2.66699 -12.5 -14 -20.5l-342 -249l130 -401c4.66699 -13.333 4.5 -21.833 -0.5 -25.5s-13.167 -1.5 -24.5 6.5l-343 246l-342 -247
c-11.333 -8 -19.5 -10.167 -24.5 -6.5s-5.16699 12.167 -0.5 25.5l130 400l-347 251c-11.333 8 -16 14.833 -14 20.5s9.66699 8.5 23 8.5h429zM477 700h-240l197 -142l-74 -226l193 139l195 -140l-74 229l192 140h-234l-78 211z" />
    <glyph glyph-name="uniE008" unicode="&#xe008;" 
d="M600 1200c82.667 0 153.332 -29.333 211.999 -88s88 -129.334 88 -212.001v-250c0 -30.667 -10.333 -63.334 -31 -98.001s-43.667 -52 -69 -52v-75c0 -6.66699 2 -13.834 6 -21.501s9 -13.5 15 -17.5l358 -230c6 -3.33301 11 -8.83301 15 -16.5s6 -14.834 6 -21.501v-93
c0 -6.66699 -2.5 -12.5 -7.5 -17.5s-10.833 -7.5 -17.5 -7.5h-1150c-6.66699 0 -12.5 2.5 -17.5 7.5s-7.5 10.833 -7.5 17.5v93c0 6.66699 2 13.834 6 21.501s9 13.167 15 16.5l358 230c6 4 11 9.83301 15 17.5s6 14.834 6 21.501v75c-25.333 0 -48.333 17.333 -69 52
s-31 67.334 -31 98.001v250c0 82.667 29.333 153.334 88 212.001s129.334 88 212.001 88z" />
    <glyph glyph-name="uniE009" unicode="&#xe009;" 
d="M25 1100h1150c6.66699 0 12.5 -2.5 17.5 -7.5s7.5 -10.833 7.5 -17.5v-1050c0 -6.66699 -2.5 -12.5 -7.5 -17.5s-10.833 -7.5 -17.5 -7.5h-1150c-6.66699 0 -12.5 2.5 -17.5 7.5s-7.5 10.833 -7.5 17.5v1050c0 6.66699 2.5 12.5 7.5 17.5s10.833 7.5 17.5 7.5zM100 1000
v-100h100v100h-100zM875 1000h-550c-6.66699 0 -12.5 -2.5 -17.5 -7.5s-7.5 -10.833 -7.5 -17.5v-350c0 -6.66699 2.5 -12.5 7.5 -17.5s10.833 -7.5 17.5 -7.5h550c6.66699 0 12.5 2.5 17.5 7.5s7.5 10.833 7.5 17.5v350c0 6.66699 -2.5 12.5 -7.5 17.5
s-10.833 7.5 -17.5 7.5zM1000 1000v-100h100v100h-100zM100 800v-100h100v100h-100zM1000 800v-100h100v100h-100zM100 600v-100h100v100h-100zM1000 600v-100h100v100h-100zM875 500h-550c-6.66699 0 -12.5 -2.5 -17.5 -7.5s-7.5 -10.833 -7.5 -17.5v-350
c0 -6.66699 2.5 -12.5 7.5 -17.5s10.833 -7.5 17.5 -7.5h550c6.66699 0 12.5 2.5 17.5 7.5s7.5 10.833 7.5 17.5v350c0 6.66699 -2.5 12.5 -7.5 17.5s-10.833 7.5 -17.5 7.5zM100 400v-100h100v100h-100zM1000 400v-100h100v100h-100zM100 200v-100h100v100h-100zM1000 200
v-100h100v100h-100z" />
    <glyph glyph-name="uniE010" unicode="&#xe010;" 
d="M50 1100h400c14 0 25.833 -4.83301 35.5 -14.5s14.5 -21.5 14.5 -35.5v-400c0 -14 -4.83301 -25.833 -14.5 -35.5s-21.5 -14.5 -35.5 -14.5h-400c-14 0 -25.833 4.83301 -35.5 14.5s-14.5 21.5 -14.5 35.5v400c-0 14 4.83301 25.833 14.5 35.5s21.5 14.5 35.5 14.5z
M650 1100h400c14 0 25.833 -4.83301 35.5 -14.5s14.5 -21.5 14.5 -35.5v-400c0 -14 -4.83301 -25.833 -14.5 -35.5s-21.5 -14.5 -35.5 -14.5h-400c-14 0 -25.833 4.83301 -35.5 14.5s-14.5 21.5 -14.5 35.5v400c0 14 4.83301 25.833 14.5 35.5s21.5 14.5 35.5 14.5zM50 500
h400c14 0 25.833 -4.83301 35.5 -14.5s14.5 -21.5 14.5 -35.5v-400c0 -14 -4.83301 -25.833 -14.5 -35.5s-21.5 -14.5 -35.5 -14.5h-400c-14 -0 -25.833 4.83301 -35.5 14.5s-14.5 21.5 -14.5 35.5v400c-0 14 4.83301 25.833 14.5 35.5s21.5 14.5 35.5 14.5zM650 500h400
c14 0 25.833 -4.83301 35.5 -14.5s14.5 -21.5 14.5 -35.5v-400c0 -14 -4.83301 -25.833 -14.5 -35.5s-21.5 -14.5 -35.5 -14.5h-400c-14 -0 -25.833 4.83301 -35.5 14.5s-14.5 21.5 -14.5 35.5v400c0 14 4.83301 25.833 14.5 35.5s21.5 14.5 35.5 14.5z" />
    <glyph glyph-name="uniE011" unicode="&#xe011;" 
d="M50 1100h200c14 0 25.833 -4.83301 35.5 -14.5s14.5 -21.5 14.5 -35.5v-200c0 -14 -4.83301 -25.833 -14.5 -35.5s-21.5 -14.5 -35.5 -14.5h-200c-14 0 -25.833 4.83301 -35.5 14.5s-14.5 21.5 -14.5 35.5v200c-0 14 4.83301 25.833 14.5 35.5s21.5 14.5 35.5 14.5z
M450 1100h200c14 0 25.833 -4.83301 35.5 -14.5s14.5 -21.5 14.5 -35.5v-200c0 -14 -4.83301 -25.833 -14.5 -35.5s-21.5 -14.5 -35.5 -14.5h-200c-14 0 -25.833 4.83301 -35.5 14.5s-14.5 21.5 -14.5 35.5v200c0 14 4.83301 25.833 14.5 35.5s21.5 14.5 35.5 14.5z
M850 1100h200c14 0 25.833 -4.83301 35.5 -14.5s14.5 -21.5 14.5 -35.5v-200c0 -14 -4.83301 -25.833 -14.5 -35.5s-21.5 -14.5 -35.5 -14.5h-200c-14 0 -25.833 4.83301 -35.5 14.5s-14.5 21.5 -14.5 35.5v200c0 14 4.83301 25.833 14.5 35.5s21.5 14.5 35.5 14.5zM50 700
h200c14 0 25.833 -4.83301 35.5 -14.5s14.5 -21.5 14.5 -35.5v-200c0 -14 -4.83301 -25.833 -14.5 -35.5s-21.5 -14.5 -35.5 -14.5h-200c-14 0 -25.833 4.83301 -35.5 14.5s-14.5 21.5 -14.5 35.5v200c-0 14 4.83301 25.833 14.5 35.5s21.5 14.5 35.5 14.5zM450 700h200
c14 0 25.833 -4.83301 35.5 -14.5s14.5 -21.5 14.5 -35.5v-200c0 -14 -4.83301 -25.833 -14.5 -35.5s-21.5 -14.5 -35.5 -14.5h-200c-14 0 -25.833 4.83301 -35.5 14.5s-14.5 21.5 -14.5 35.5v200c0 14 4.83301 25.833 14.5 35.5s21.5 14.5 35.5 14.5zM850 700h200
c14 0 25.833 -4.83301 35.5 -14.5s14.5 -21.5 14.5 -35.5v-200c0 -14 -4.83301 -25.833 -14.5 -35.5s-21.5 -14.5 -35.5 -14.5h-200c-14 0 -25.833 4.83301 -35.5 14.5s-14.5 21.5 -14.5 35.5v200c0 14 4.83301 25.833 14.5 35.5s21.5 14.5 35.5 14.5zM50 300h200
c14 0 25.833 -4.83301 35.5 -14.5s14.5 -21.5 14.5 -35.5v-200c0 -14 -4.83301 -25.833 -14.5 -35.5s-21.5 -14.5 -35.5 -14.5h-200c-14 -0 -25.833 4.83301 -35.5 14.5s-14.5 21.5 -14.5 35.5v200c-0 14 4.83301 25.833 14.5 35.5s21.5 14.5 35.5 14.5zM450 300h200
c14 0 25.833 -4.83301 35.5 -14.5s14.5 -21.5 14.5 -35.5v-200c0 -14 -4.83301 -25.833 -14.5 -35.5s-21.5 -14.5 -35.5 -14.5h-200c-14 -0 -25.833 4.83301 -35.5 14.5s-14.5 21.5 -14.5 35.5v200c0 14 4.83301 25.833 14.5 35.5s21.5 14.5 35.5 14.5zM850 300h200
c14 0 25.833 -4.83301 35.5 -14.5s14.5 -21.5 14.5 -35.5v-200c0 -14 -4.83301 -25.833 -14.5 -35.5s-21.5 -14.5 -35.5 -14.5h-200c-14 -0 -25.833 4.83301 -35.5 14.5s-14.5 21.5 -14.5 35.5v200c0 14 4.83301 25.833 14.5 35.5s21.5 14.5 35.5 14.5z" />
    <glyph glyph-name="uniE012" unicode="&#xe012;" 
d="M50 1100h200c14 0 25.833 -4.83301 35.5 -14.5s14.5 -21.5 14.5 -35.5v-200c0 -14 -4.83301 -25.833 -14.5 -35.5s-21.5 -14.5 -35.5 -14.5h-200c-14 0 -25.833 4.83301 -35.5 14.5s-14.5 21.5 -14.5 35.5v200c-0 14 4.83301 25.833 14.5 35.5s21.5 14.5 35.5 14.5z
M450 1100h700c14 0 25.833 -4.83301 35.5 -14.5s14.5 -21.5 14.5 -35.5v-200c0 -14 -4.83301 -25.833 -14.5 -35.5s-21.5 -14.5 -35.5 -14.5h-700c-14 0 -25.833 4.83301 -35.5 14.5s-14.5 21.5 -14.5 35.5v200c0 14 4.83301 25.833 14.5 35.5s21.5 14.5 35.5 14.5zM50 700
h200c14 0 25.833 -4.83301 35.5 -14.5s14.5 -21.5 14.5 -35.5v-200c0 -14 -4.83301 -25.833 -14.5 -35.5s-21.5 -14.5 -35.5 -14.5h-200c-14 0 -25.833 4.83301 -35.5 14.5s-14.5 21.5 -14.5 35.5v200c-0 14 4.83301 25.833 14.5 35.5s21.5 14.5 35.5 14.5zM450 700h700
c14 0 25.833 -4.83301 35.5 -14.5s14.5 -21.5 14.5 -35.5v-200c0 -14 -4.83301 -25.833 -14.5 -35.5s-21.5 -14.5 -35.5 -14.5h-700c-14 0 -25.833 4.83301 -35.5 14.5s-14.5 21.5 -14.5 35.5v200c0 14 4.83301 25.833 14.5 35.5s21.5 14.5 35.5 14.5zM50 300h200
c14 0 25.833 -4.83301 35.5 -14.5s14.5 -21.5 14.5 -35.5v-200c0 -14 -4.83301 -25.833 -14.5 -35.5s-21.5 -14.5 -35.5 -14.5h-200c-14 -0 -25.833 4.83301 -35.5 14.5s-14.5 21.5 -14.5 35.5v200c-0 14 4.83301 25.833 14.5 35.5s21.5 14.5 35.5 14.5zM450 300h700
c14 0 25.833 -4.83301 35.5 -14.5s14.5 -21.5 14.5 -35.5v-200c0 -14 -4.83301 -25.833 -14.5 -35.5s-21.5 -14.5 -35.5 -14.5h-700c-14 -0 -25.833 4.83301 -35.5 14.5s-14.5 21.5 -14.5 35.5v200c0 14 4.83301 25.833 14.5 35.5s21.5 14.5 35.5 14.5z" />
    <glyph glyph-name="uniE013" unicode="&#xe013;" 
d="M465 477l570.998 571c5.33301 5.33301 11.333 8 18 8s12.334 -2.66699 17.001 -8l177 -177c5.33301 -4.66699 8 -10.334 8 -17.001s-2.66699 -12.667 -8 -18l-783 -784c-4.66699 -5.33301 -10.5 -8 -17.5 -8s-12.833 2.66699 -17.5 8l-384 384
c-5.33301 5.33301 -8 11.333 -8 18s2.66699 12.334 8 17.001l177 177c4.66699 5.33301 10.334 8 17.001 8s12.667 -2.66699 18 -8l171 -171c4.66699 -4.66699 10.667 -7 18 -7s13.333 2.33301 18 7z" />
    <glyph glyph-name="uniE014" unicode="&#xe014;" 
d="M904 1083l178 -179c5.33301 -5.33301 8 -11.5 8 -18.5s-2.66699 -12.833 -8 -17.5l-267 -268l267 -268c5.33301 -4.66699 8 -10.5 8 -17.5s-2.66699 -13.167 -8 -18.5l-178 -178c-5.33301 -5.33301 -11.5 -8 -18.5 -8s-12.833 2.66699 -17.5 8l-268 267l-268 -267
c-4.66699 -5.33301 -10.5 -8 -17.5 -8s-13.167 2.66699 -18.5 8l-178 178c-5.33301 5.33301 -8 11.5 -8 18.5s2.66699 12.833 8 17.5l267 268l-267 268c-5.33301 4.66699 -8 10.5 -8 17.5s2.66699 13.167 8 18.5l178 178c5.33301 5.33301 11.5 8 18.5 8
s12.833 -2.66699 17.5 -8l268 -267l268 268c4.66699 4.66699 10.5 7 17.5 7s13.167 -2.33301 18.5 -7z" />
    <glyph glyph-name="uniE015" unicode="&#xe015;" 
d="M507 1177c65.333 0 127.833 -12.833 187.5 -38.5s111.167 -60.167 154.5 -103.5s77.833 -94.833 103.5 -154.5s38.5 -122.167 38.5 -187.5c0 -94 -26 -181.333 -78 -262l300 -299c5.33301 -5.33301 8 -11.5 8 -18.5s-2.66699 -13.167 -8 -18.5l-109 -108
c-4.66699 -5.33301 -10.5 -8 -17.5 -8s-13.167 2.66699 -18.5 8l-300 299c-79.333 -51.333 -166.333 -77 -261 -77c-65.333 0 -128 12.833 -188 38.5s-111.5 60 -154.5 103s-77.333 94.5 -103 154.5s-38.5 122.667 -38.5 188s12.833 127.833 38.5 187.5
s60 111.167 103 154.5s94.5 77.833 154.5 103.5s122.667 38.5 188 38.5zM506.5 1023c-59.667 0 -114.834 -14.667 -165.501 -44s-90.667 -69.5 -120 -120.5s-44 -106.333 -44 -166s14.667 -114.834 44 -165.501s69.333 -90.667 120 -120s105.834 -44 165.501 -44
s115 14.667 166 44s91.167 69.333 120.5 120s44 105.834 44 165.501s-14.667 115 -44 166s-69.5 91.167 -120.5 120.5s-106.333 44 -166 44zM425 900h150c6.66699 0 12.5 -2.5 17.5 -7.5s7.5 -10.833 7.5 -17.5v-75h75c6.66699 0 12.5 -2.5 17.5 -7.5s7.5 -10.833 7.5 -17.5
v-150c0 -6.66699 -2.5 -12.5 -7.5 -17.5s-10.833 -7.5 -17.5 -7.5h-75v-75c0 -6.66699 -2.5 -12.5 -7.5 -17.5s-10.833 -7.5 -17.5 -7.5h-150c-6.66699 0 -12.5 2.5 -17.5 7.5s-7.5 10.833 -7.5 17.5v75h-75c-6.66699 0 -12.5 2.5 -17.5 7.5s-7.5 10.833 -7.5 17.5v150
c0 6.66699 2.5 12.5 7.5 17.5s10.833 7.5 17.5 7.5h75v75c0 6.66699 2.5 12.5 7.5 17.5s10.833 7.5 17.5 7.5z" />
    <glyph glyph-name="uniE016" unicode="&#xe016;" 
d="M507 1177c65.333 0 127.833 -12.833 187.5 -38.5s111.167 -60.167 154.5 -103.5s77.833 -94.833 103.5 -154.5s38.5 -122.167 38.5 -187.5c0 -94 -26 -181.333 -78 -262l300 -299c5.33301 -5.33301 8 -11.5 8 -18.5s-2.66699 -13.167 -8 -18.5l-109 -108
c-4.66699 -5.33301 -10.5 -8 -17.5 -8s-13.167 2.66699 -18.5 8l-300 299c-79.333 -51.333 -166.333 -77 -261 -77c-65.333 0 -128 12.833 -188 38.5s-111.5 60 -154.5 103s-77.333 94.5 -103 154.5s-38.5 122.667 -38.5 188s12.833 127.833 38.5 187.5
s60 111.167 103 154.5s94.5 77.833 154.5 103.5s122.667 38.5 188 38.5zM506.5 1023c-59.667 0 -114.834 -14.667 -165.501 -44s-90.667 -69.5 -120 -120.5s-44 -106.333 -44 -166s14.667 -114.834 44 -165.501s69.333 -90.667 120 -120s105.834 -44 165.501 -44
s115 14.667 166 44s91.167 69.333 120.5 120s44 105.834 44 165.501s-14.667 115 -44 166s-69.5 91.167 -120.5 120.5s-106.333 44 -166 44zM325 800h350c6.66699 0 12.5 -2.5 17.5 -7.5s7.5 -10.833 7.5 -17.5v-150c0 -6.66699 -2.5 -12.5 -7.5 -17.5
s-10.833 -7.5 -17.5 -7.5h-350c-6.66699 0 -12.5 2.5 -17.5 7.5s-7.5 10.833 -7.5 17.5v150c0 6.66699 2.5 12.5 7.5 17.5s10.833 7.5 17.5 7.5z" />
    <glyph glyph-name="uniE017" unicode="&#xe017;" 
d="M550 1200h100c14 0 25.833 -4.83301 35.5 -14.5s14.5 -21.5 14.5 -35.5v-400c0 -14 -4.83301 -25.833 -14.5 -35.5s-21.5 -14.5 -35.5 -14.5h-100c-14 0 -25.833 4.83301 -35.5 14.5s-14.5 21.5 -14.5 35.5v400c0 14 4.83301 25.833 14.5 35.5s21.5 14.5 35.5 14.5z
M800 975v166c111.333 -41.333 202 -111.166 272 -209.499s105 -208.833 105 -331.5c0 -78 -15.167 -152.667 -45.5 -224s-71.333 -132.833 -123 -184.5s-113.167 -92.667 -184.5 -123s-146 -45.5 -224 -45.5s-152.667 15.167 -224 45.5s-132.833 71.333 -184.5 123
s-92.667 113.167 -123 184.5s-45.5 146 -45.5 224c0 122.667 35 233.167 105 331.5s160.667 168.166 272 209.499v-166c-68.667 -36.667 -123.667 -88.334 -165 -155.001s-62 -140 -62 -220c0 -77.333 19 -148.833 57 -214.5s89.833 -117.5 155.5 -155.5
s137.167 -57 214.5 -57s148.833 19 214.5 57s117.5 89.833 155.5 155.5s57 137.167 57 214.5c0 80 -20.667 153.333 -62 220s-96.333 118.334 -165 155.001z" />
    <glyph glyph-name="uniE018" unicode="&#xe018;" 
d="M1025 1200h150c6.66699 0 12.5 -2.5 17.5 -7.5s7.5 -10.833 7.5 -17.5v-1150c0 -6.66699 -2.5 -12.5 -7.5 -17.5s-10.833 -7.5 -17.5 -7.5h-150c-6.66699 0 -12.5 2.5 -17.5 7.5s-7.5 10.833 -7.5 17.5v1150c0 6.66699 2.5 12.5 7.5 17.5s10.833 7.5 17.5 7.5zM725 800
h150c6.66699 0 12.5 -2.5 17.5 -7.5s7.5 -10.833 7.5 -17.5v-750c0 -6.66699 -2.5 -12.5 -7.5 -17.5s-10.833 -7.5 -17.5 -7.5h-150c-6.66699 0 -12.5 2.5 -17.5 7.5s-7.5 10.833 -7.5 17.5v750c0 6.66699 2.5 12.5 7.5 17.5s10.833 7.5 17.5 7.5zM425 500h150
c6.66699 0 12.5 -2.5 17.5 -7.5s7.5 -10.833 7.5 -17.5v-450c0 -6.66699 -2.5 -12.5 -7.5 -17.5s-10.833 -7.5 -17.5 -7.5h-150c-6.66699 0 -12.5 2.5 -17.5 7.5s-7.5 10.833 -7.5 17.5v450c0 6.66699 2.5 12.5 7.5 17.5s10.833 7.5 17.5 7.5zM125 300h150
c6.66699 0 12.5 -2.5 17.5 -7.5s7.5 -10.833 7.5 -17.5v-250c0 -6.66699 -2.5 -12.5 -7.5 -17.5s-10.833 -7.5 -17.5 -7.5h-150c-6.66699 0 -12.5 2.5 -17.5 7.5s-7.5 10.833 -7.5 17.5v250c0 6.66699 2.5 12.5 7.5 17.5s10.833 7.5 17.5 7.5z" />
    <glyph glyph-name="uniE019" unicode="&#xe019;" 
d="M600 1174c22 0 46.665 -1.66602 73.998 -4.99902l38 -152l5 -1c32.667 -9.33301 64 -22.333 94 -39l5 -2l134 80c40.667 -32 75.334 -67 104.001 -105l-80 -134l3 -5c16.667 -29.333 29.667 -60.333 39 -93l1 -6l152 -38c3.33301 -28.667 5 -53 5 -73
c0 -22.667 -1.66699 -47.334 -5 -74.001l-152 -38l-1 -6c-10 -32.667 -23 -63.667 -39 -93l-3 -5l80 -134c-32 -40.667 -66.667 -75.667 -104 -105l-134 81l-5 -3c-29.333 -16.667 -60.666 -29.667 -93.999 -39l-5 -2l-38 -151c-28.667 -3.33301 -53.334 -5 -74.001 -5
c-22 0 -46.667 1.66699 -74 5l-38 151l-5 2c-32.667 9.33301 -64 22.333 -94 39l-5 3l-134 -81c-40 32 -74.667 67 -104 105l80 134l-3 5c-16.667 30 -29.334 61 -38.001 93l-2 6l-151 38c-4 28 -6 52.667 -6 74c0 22 2 46.333 6 73l151 38l2 6
c8.66699 32 21.334 63 38.001 93l3 5l-80 134c31.333 40.667 66.333 75.667 105 105l133 -80l5 2c30 16.667 61.333 29.667 94 39l5 1l38 152c28.667 3.33301 53.334 5 74.001 5zM599.998 815.001c-59.333 0 -110 -21 -152 -63s-63 -92.5 -63 -151.5s21 -109.5 63 -151.5
s92.667 -63 152 -63s110 21 152 63s63 92.5 63 151.5s-21 109.5 -63 151.5s-92.667 63 -152 63z" />
    <glyph glyph-name="uniE020" unicode="&#xe020;" 
d="M500 1300h300c27.333 0 50.833 -9.83301 70.5 -29.5s29.5 -43.167 29.5 -70.5v-100h275c6.66699 0 12.5 -2.5 17.5 -7.5s7.5 -10.833 7.5 -17.5v-75h-1100v75c0 6.66699 2.5 12.5 7.5 17.5s10.833 7.5 17.5 7.5h275v100c0 27.333 9.83301 50.833 29.5 70.5
s43.167 29.5 70.5 29.5zM500 1200v-100h300v100h-300zM1100 900v-800c0 -27.333 -9.83301 -50.833 -29.5 -70.5s-43.167 -29.5 -70.5 -29.5h-700c-27.333 -0 -50.833 9.83301 -70.5 29.5s-29.5 43.167 -29.5 70.5v800h900zM300 800v-700h100v700h-100zM500 800v-700h100v700
h-100zM700 800v-700h100v700h-100zM900 800v-700h100v700h-100z" />
    <glyph glyph-name="uniE021" unicode="&#xe021;" 
d="M18 618l620.004 608c5.33301 4.66699 11.5 7 18.5 7s12.833 -2.33301 17.5 -7l608 -608c5.33301 -5.33301 7.16602 -9.66602 5.49902 -12.999s-5.83398 -5 -12.501 -5h-175v-575c0 -6.66699 -2.5 -12.5 -7.5 -17.5s-10.833 -7.5 -17.5 -7.5h-250
c-6.66699 0 -12.5 2.5 -17.5 7.5s-7.5 10.833 -7.5 17.5v375h-300v-375c0 -6.66699 -2.5 -12.5 -7.5 -17.5s-10.833 -7.5 -17.5 -7.5h-250c-6.66699 0 -12.5 2.5 -17.5 7.5s-7.5 10.833 -7.5 17.5v575h-175c-6.66699 0 -10.834 1.66699 -12.501 5
s0.166016 7.66602 5.49902 12.999z" />
    <glyph glyph-name="uniE022" unicode="&#xe022;" 
d="M600 1200v-400c0 -27.333 9.83301 -50.833 29.5 -70.5s43.167 -29.5 70.5 -29.5h300v-650c0 -14 -4.83301 -25.833 -14.5 -35.5s-21.5 -14.5 -35.5 -14.5h-800c-14 -0 -25.833 4.83301 -35.5 14.5s-14.5 21.5 -14.5 35.5v1100c0 14 4.83301 25.833 14.5 35.5
s21.5 14.5 35.5 14.5h450zM1000 800h-250c-14 0 -25.833 4.83301 -35.5 14.5s-14.5 21.5 -14.5 35.5v250z" />
    <glyph glyph-name="uniE023" unicode="&#xe023;" 
d="M600 1177c78 0 152.667 -15.167 224 -45.5s132.833 -71.333 184.5 -123s92.667 -113.167 123 -184.5s45.5 -146 45.5 -224s-15.167 -152.667 -45.5 -224s-71.333 -132.833 -123 -184.5s-113.167 -92.667 -184.5 -123s-146 -45.5 -224 -45.5s-152.667 15.167 -224 45.5
s-132.833 71.333 -184.5 123s-92.667 113.167 -123 184.5s-45.5 146 -45.5 224s15.167 152.667 45.5 224s71.333 132.833 123 184.5s113.167 92.667 184.5 123s146 45.5 224 45.5zM600 1027c-77.333 0 -148.833 -19 -214.5 -57s-117.5 -89.833 -155.5 -155.5
s-57 -137.167 -57 -214.5s19 -148.833 57 -214.5s89.833 -117.5 155.5 -155.5s137.167 -57 214.5 -57s148.833 19 214.5 57s117.5 89.833 155.5 155.5s57 137.167 57 214.5s-19 148.833 -57 214.5s-89.833 117.5 -155.5 155.5s-137.167 57 -214.5 57zM525 900h50
c6.66699 0 12.5 -2.5 17.5 -7.5s7.5 -10.833 7.5 -17.5v-275h175c6.66699 0 12.5 -2.5 17.5 -7.5s7.5 -10.833 7.5 -17.5v-50c0 -6.66699 -2.5 -12.5 -7.5 -17.5s-10.833 -7.5 -17.5 -7.5h-250c-6.66699 0 -12.5 2.5 -17.5 7.5s-7.5 10.833 -7.5 17.5v350
c0 6.66699 2.5 12.5 7.5 17.5s10.833 7.5 17.5 7.5z" />
    <glyph glyph-name="uniE024" unicode="&#xe024;" 
d="M1300 0h-538l-41 400h-242l-41 -400h-538l431 1200h209l-21 -300h162l-20 300h208zM515 800l-27 -300h224l-27 300h-170z" />
    <glyph glyph-name="uniE025" unicode="&#xe025;" 
d="M550 1200h200.002c14 0 25.833 -4.83301 35.5 -14.5s14.5 -21.5 14.5 -35.5v-450h191c13.333 0 21.833 -3.83301 25.5 -11.5s1.16699 -16.834 -7.5 -27.501l-327 -400c-8.66699 -10.667 -19.334 -16 -32.001 -16s-23.334 5.33301 -32.001 16l-327 400
c-8.66699 10.667 -11.167 19.834 -7.5 27.501s12.167 11.5 25.5 11.5h191v450c0 14 4.83301 25.833 14.5 35.5s21.5 14.5 35.5 14.5zM1125 400h50c6.66699 0 12.5 -2.5 17.5 -7.5s7.5 -10.833 7.5 -17.5v-350c0 -6.66699 -2.5 -12.5 -7.5 -17.5s-10.833 -7.5 -17.5 -7.5
h-1050c-6.66699 0 -12.5 2.5 -17.5 7.5s-7.5 10.833 -7.5 17.5v350c0 6.66699 2.5 12.5 7.5 17.5s10.833 7.5 17.5 7.5h50c6.66699 0 12.5 -2.5 17.5 -7.5s7.5 -10.833 7.5 -17.5v-175h900v175c0 6.66699 2.5 12.5 7.5 17.5s10.833 7.5 17.5 7.5z" />
    <glyph glyph-name="uniE026" unicode="&#xe026;" 
d="M600 1177c78 0 152.667 -15.167 224 -45.5s132.833 -71.333 184.5 -123s92.667 -113.167 123 -184.5s45.5 -146 45.5 -224s-15.167 -152.667 -45.5 -224s-71.333 -132.833 -123 -184.5s-113.167 -92.667 -184.5 -123s-146 -45.5 -224 -45.5s-152.667 15.167 -224 45.5
s-132.833 71.333 -184.5 123s-92.667 113.167 -123 184.5s-45.5 146 -45.5 224s15.167 152.667 45.5 224s71.333 132.833 123 184.5s113.167 92.667 184.5 123s146 45.5 224 45.5zM600 1027c-77.333 0 -148.833 -19 -214.5 -57s-117.5 -89.833 -155.5 -155.5
s-57 -137.167 -57 -214.5s19 -148.833 57 -214.5s89.833 -117.5 155.5 -155.5s137.167 -57 214.5 -57s148.833 19 214.5 57s117.5 89.833 155.5 155.5s57 137.167 57 214.5s-19 148.833 -57 214.5s-89.833 117.5 -155.5 155.5s-137.167 57 -214.5 57zM525 900h150.004
c6.66699 0 12.5 -2.5 17.5 -7.5s7.5 -10.833 7.5 -17.5v-275h137c14 0 22.667 -3.83301 26 -11.5s0.666016 -16.834 -8.00098 -27.501l-223 -275c-8.66699 -10.667 -19.334 -16 -32.001 -16s-23.334 5.33301 -32.001 16l-223 275
c-8.66699 10.667 -11.334 19.834 -8.00098 27.501s12 11.5 26 11.5h137v275c0 6.66699 2.5 12.5 7.5 17.5s10.833 7.5 17.5 7.5z" />
    <glyph glyph-name="uniE027" unicode="&#xe027;" 
d="M600 1177c78 0 152.667 -15.167 224 -45.5s132.833 -71.333 184.5 -123s92.667 -113.167 123 -184.5s45.5 -146 45.5 -224s-15.167 -152.667 -45.5 -224s-71.333 -132.833 -123 -184.5s-113.167 -92.667 -184.5 -123s-146 -45.5 -224 -45.5s-152.667 15.167 -224 45.5
s-132.833 71.333 -184.5 123s-92.667 113.167 -123 184.5s-45.5 146 -45.5 224s15.167 152.667 45.5 224s71.333 132.833 123 184.5s113.167 92.667 184.5 123s146 45.5 224 45.5zM600 1027c-77.333 0 -148.833 -19 -214.5 -57s-117.5 -89.833 -155.5 -155.5
s-57 -137.167 -57 -214.5s19 -148.833 57 -214.5s89.833 -117.5 155.5 -155.5s137.167 -57 214.5 -57s148.833 19 214.5 57s117.5 89.833 155.5 155.5s57 137.167 57 214.5s-19 148.833 -57 214.5s-89.833 117.5 -155.5 155.5s-137.167 57 -214.5 57zM632 914l222.996 -275
c8.66699 -10.667 11.334 -19.834 8.00098 -27.501s-12 -11.5 -26 -11.5h-137v-275c0 -6.66699 -2.5 -12.5 -7.5 -17.5s-10.833 -7.5 -17.5 -7.5h-150c-6.66699 0 -12.5 2.5 -17.5 7.5s-7.5 10.833 -7.5 17.5v275h-137c-14 0 -22.667 3.83301 -26 11.5
s-0.666016 16.834 8.00098 27.501l223 275c8.66699 10.667 19.334 16 32.001 16s23.334 -5.33301 32.001 -16z" />
    <glyph glyph-name="uniE028" unicode="&#xe028;" 
d="M225 1200l750 -0.00195312c6.66699 0 13.167 -2.33301 19.5 -7s10.5 -10.334 12.5 -17.001l186 -652c4.66699 -16 7 -32.333 7 -49v-425c0 -8 -1.33301 -17 -4 -27s-5.66699 -15.667 -9 -17c-8 -4 -20.333 -6 -37 -6h-1100c-8 0 -17 1.33301 -27 4
s-15.667 5.33398 -17 8.00098c-4 8.66699 -6 21.334 -6 38.001l1 425c0 16.667 2.33301 33 7 49l185 652c2 6.66699 6.16699 12.334 12.5 17.001s12.833 7 19.5 7zM878 999.998h-555.996c-6.66699 0 -13 -2.33301 -19 -7s-9.66699 -10.667 -11 -18l-87 -450
c-1.33301 -7.33301 0 -13.333 4 -18s9.33301 -7 16 -7h150c6.66699 0 13.167 -2.33301 19.5 -7s10.166 -10.334 11.499 -17.001l38 -152c1.33301 -6.66699 5.16602 -12.334 11.499 -17.001s12.833 -7 19.5 -7h250c6.66699 0 13.167 2.33301 19.5 7
s10.166 10.334 11.499 17.001l38 152c1.33301 6.66699 5.16602 12.334 11.499 17.001s12.833 7 19.5 7h150c6.66699 0 12 2.33301 16 7s5.33301 10.667 4 18l-87 450c-1.33301 7.33301 -5 13.333 -11 18s-12.333 7 -19 7z" />
    <glyph glyph-name="uniE029" unicode="&#xe029;" 
d="M600 1177c78 0 152.667 -15.167 224 -45.5s132.833 -71.333 184.5 -123s92.667 -113.167 123 -184.5s45.5 -146 45.5 -224s-15.167 -152.667 -45.5 -224s-71.333 -132.833 -123 -184.5s-113.167 -92.667 -184.5 -123s-146 -45.5 -224 -45.5s-152.667 15.167 -224 45.5
s-132.833 71.333 -184.5 123s-92.667 113.167 -123 184.5s-45.5 146 -45.5 224s15.167 152.667 45.5 224s71.333 132.833 123 184.5s113.167 92.667 184.5 123s146 45.5 224 45.5zM600 1027c-77.333 0 -148.833 -19 -214.5 -57s-117.5 -89.833 -155.5 -155.5
s-57 -137.167 -57 -214.5s19 -148.833 57 -214.5s89.833 -117.5 155.5 -155.5s137.167 -57 214.5 -57s148.833 19 214.5 57s117.5 89.833 155.5 155.5s57 137.167 57 214.5s-19 148.833 -57 214.5s-89.833 117.5 -155.5 155.5s-137.167 57 -214.5 57zM540 820l253 -190
c11.333 -8 17 -18 17 -30s-5.66699 -22 -17 -30l-253 -190c-10.667 -8 -20 -10.167 -28 -6.5s-12 12.5 -12 26.5v400c0 14 4 22.833 12 26.5s17.333 1.5 28 -6.5z" />
    <glyph glyph-name="uniE030" unicode="&#xe030;" 
d="M947 1060l134.997 134.997c4.66699 4.66699 8.83398 6.33398 12.501 5.00098s5.5 -5.66602 5.5 -12.999v-362c0 -6.66699 -2.5 -12.5 -7.5 -17.5s-10.833 -7.5 -17.5 -7.5h-362c-7.33301 0 -11.666 1.83301 -12.999 5.5s0.333984 7.83398 5.00098 12.501l133 133
c-72.667 50.667 -152 76 -238 76c-77.333 0 -148.833 -19 -214.5 -57s-117.5 -89.833 -155.5 -155.5s-57 -137.167 -57 -214.5s19 -148.833 57 -214.5s89.833 -117.5 155.5 -155.5s137.167 -57 214.5 -57s148.833 19 214.5 57s117.5 89.833 155.5 155.5s57 137.167 57 214.5
h150c0 -78 -15.167 -152.667 -45.5 -224s-71.333 -132.833 -123 -184.5s-113.167 -92.667 -184.5 -123s-146 -45.5 -224 -45.5s-152.667 15.167 -224 45.5s-132.833 71.333 -184.5 123s-92.667 113.167 -123 184.5s-45.5 146 -45.5 224s15.167 152.667 45.5 224
s71.333 132.833 123 184.5s113.167 92.667 184.5 123s146 45.5 224 45.5c128 0 243.667 -39 347 -117z" />
    <glyph glyph-name="uniE031" unicode="&#xe031;" 
d="M947 1060l134.997 134.997c4.66699 4.66699 8.83398 6.33398 12.501 5.00098s5.5 -5.66602 5.5 -12.999v-361c0 -7.33301 -2.5 -13.5 -7.5 -18.5s-11.167 -7.5 -18.5 -7.5h-361c-7.33301 0 -11.666 1.83301 -12.999 5.5s0.333984 7.83398 5.00098 12.501l134 134
c-73.333 50 -153 75 -239 75c-77.333 0 -148.833 -19 -214.5 -57s-117.5 -89.833 -155.5 -155.5s-57 -137.167 -57 -214.5h-150c0 78 15.167 152.667 45.5 224s71.333 132.833 123 184.5s113.167 92.667 184.5 123s146 45.5 224 45.5c128 0 243.667 -39 347 -117z
M1027 599.997l149.999 -0.000976562c0 -78 -15.167 -152.667 -45.5 -224s-71.333 -132.833 -123 -184.5s-113.167 -92.667 -184.5 -123s-146 -45.5 -224 -45.5c-128 0 -244 39.333 -348 118l-134 -134c-4.66699 -5.33301 -8.83398 -7.16602 -12.501 -5.49902
s-5.5 5.83398 -5.5 12.501v360c0 7.33301 2.5 13.5 7.5 18.5s11.167 7.5 18.5 7.5h360c6.66699 0 10.834 -1.83301 12.501 -5.5s-0.166016 -7.83398 -5.49902 -12.501l-133 -133c73.333 -50.667 153.333 -76 240 -76c77.333 0 148.833 19 214.5 57s117.5 89.833 155.5 155.5
s57 137.167 57 214.5z" />
    <glyph glyph-name="uniE032" unicode="&#xe032;" 
d="M125 1200h1050c6.66699 0 12.5 -2.5 17.5 -7.5s7.5 -10.833 7.5 -17.5v-1150c0 -6.66699 -2.5 -12.5 -7.5 -17.5s-10.833 -7.5 -17.5 -7.5h-1050c-6.66699 0 -12.5 2.5 -17.5 7.5s-7.5 10.833 -7.5 17.5v1150c0 6.66699 2.5 12.5 7.5 17.5s10.833 7.5 17.5 7.5z
M1075 1000h-850c-6.66699 0 -12.5 -2.5 -17.5 -7.5s-7.5 -10.833 -7.5 -17.5v-850c0 -6.66699 2.5 -12.5 7.5 -17.5s10.833 -7.5 17.5 -7.5h850c6.66699 0 12.5 2.5 17.5 7.5s7.5 10.833 7.5 17.5v850c0 6.66699 -2.5 12.5 -7.5 17.5s-10.833 7.5 -17.5 7.5zM325 900h50
c6.66699 0 12.5 -2.5 17.5 -7.5s7.5 -10.833 7.5 -17.5v-50c0 -6.66699 -2.5 -12.5 -7.5 -17.5s-10.833 -7.5 -17.5 -7.5h-50c-6.66699 0 -12.5 2.5 -17.5 7.5s-7.5 10.833 -7.5 17.5v50c0 6.66699 2.5 12.5 7.5 17.5s10.833 7.5 17.5 7.5zM525 900h450
c6.66699 0 12.5 -2.5 17.5 -7.5s7.5 -10.833 7.5 -17.5v-50c0 -6.66699 -2.5 -12.5 -7.5 -17.5s-10.833 -7.5 -17.5 -7.5h-450c-6.66699 0 -12.5 2.5 -17.5 7.5s-7.5 10.833 -7.5 17.5v50c0 6.66699 2.5 12.5 7.5 17.5s10.833 7.5 17.5 7.5zM325 700h50
c6.66699 0 12.5 -2.5 17.5 -7.5s7.5 -10.833 7.5 -17.5v-50c0 -6.66699 -2.5 -12.5 -7.5 -17.5s-10.833 -7.5 -17.5 -7.5h-50c-6.66699 0 -12.5 2.5 -17.5 7.5s-7.5 10.833 -7.5 17.5v50c0 6.66699 2.5 12.5 7.5 17.5s10.833 7.5 17.5 7.5zM525 700h450
c6.66699 0 12.5 -2.5 17.5 -7.5s7.5 -10.833 7.5 -17.5v-50c0 -6.66699 -2.5 -12.5 -7.5 -17.5s-10.833 -7.5 -17.5 -7.5h-450c-6.66699 0 -12.5 2.5 -17.5 7.5s-7.5 10.833 -7.5 17.5v50c0 6.66699 2.5 12.5 7.5 17.5s10.833 7.5 17.5 7.5zM325 500h50
c6.66699 0 12.5 -2.5 17.5 -7.5s7.5 -10.833 7.5 -17.5v-50c0 -6.66699 -2.5 -12.5 -7.5 -17.5s-10.833 -7.5 -17.5 -7.5h-50c-6.66699 0 -12.5 2.5 -17.5 7.5s-7.5 10.833 -7.5 17.5v50c0 6.66699 2.5 12.5 7.5 17.5s10.833 7.5 17.5 7.5zM525 500h450
c6.66699 0 12.5 -2.5 17.5 -7.5s7.5 -10.833 7.5 -17.5v-50c0 -6.66699 -2.5 -12.5 -7.5 -17.5s-10.833 -7.5 -17.5 -7.5h-450c-6.66699 0 -12.5 2.5 -17.5 7.5s-7.5 10.833 -7.5 17.5v50c0 6.66699 2.5 12.5 7.5 17.5s10.833 7.5 17.5 7.5zM325 300h50
c6.66699 0 12.5 -2.5 17.5 -7.5s7.5 -10.833 7.5 -17.5v-50c0 -6.66699 -2.5 -12.5 -7.5 -17.5s-10.833 -7.5 -17.5 -7.5h-50c-6.66699 0 -12.5 2.5 -17.5 7.5s-7.5 10.833 -7.5 17.5v50c0 6.66699 2.5 12.5 7.5 17.5s10.833 7.5 17.5 7.5zM525 300h450
c6.66699 0 12.5 -2.5 17.5 -7.5s7.5 -10.833 7.5 -17.5v-50c0 -6.66699 -2.5 -12.5 -7.5 -17.5s-10.833 -7.5 -17.5 -7.5h-450c-6.66699 0 -12.5 2.5 -17.5 7.5s-7.5 10.833 -7.5 17.5v50c0 6.66699 2.5 12.5 7.5 17.5s10.833 7.5 17.5 7.5z" />
    <glyph glyph-name="uniE033" unicode="&#xe033;" 
d="M900 800v200c0 55.333 -19.5 102.5 -58.5 141.5s-86.167 58.5 -141.5 58.5h-300c-54.667 0 -101.667 -19.667 -141 -59s-59 -86.333 -59 -141v-200h-100c-27.333 0 -50.833 -9.83301 -70.5 -29.5s-29.5 -43.167 -29.5 -70.5v-600c-0 -27.333 9.83301 -50.833 29.5 -70.5
s43.167 -29.5 70.5 -29.5h900c27.333 -0 50.833 9.83301 70.5 29.5s29.5 43.167 29.5 70.5v600c0 27.333 -9.83301 50.833 -29.5 70.5s-43.167 29.5 -70.5 29.5h-100zM400 800v150c0 14 5 25.833 15 35.5s21.667 14.5 35 14.5h200c13.333 0 25 -4.83301 35 -14.5
s15 -21.5 15 -35.5v-150h-300z" />
    <glyph glyph-name="uniE034" unicode="&#xe034;" 
d="M125 1100h50c6.66699 0 12.5 -2.5 17.5 -7.5s7.5 -10.833 7.5 -17.5v-1075h-100v1075c0 6.66699 2.5 12.5 7.5 17.5s10.833 7.5 17.5 7.5zM1075 1052c2.66699 0 5.66895 -0.665039 9.00195 -1.99805c10.667 -4 16 -11.667 16 -23v-421c0 -4 -1 -8 -3 -12
c-22 -39.333 -44.167 -72.333 -66.5 -99s-44.166 -46 -65.499 -58s-40.166 -20.167 -56.499 -24.5s-33.833 -6.5 -52.5 -6.5c-17.333 0 -36.5 2.16699 -57.5 6.5s-38.5 8.83301 -52.5 13.5l-60 21l-63 22.5c-14.667 5 -33.834 10 -57.501 15s-45.5 7.5 -65.5 7.5
c-56.667 0 -110 -19 -160 -57c-4.66699 -3.33301 -9.66699 -5 -15 -5c-4 0 -7.66699 1 -11 3c-9.33301 4.66699 -14 12 -14 22v438c14.667 36.667 42 69.5 82 98.5s79.667 44.5 119 46.5c15.333 1.33301 29.666 1.5 42.999 0.5s27.666 -3.33301 42.999 -7
s26.166 -6.5 32.499 -8.5s19 -6.33301 38 -13s29.833 -10.334 32.5 -11.001c27.333 -9.33301 48.5 -16.333 63.5 -21s34 -9.33398 57 -14.001s44.167 -7 63.5 -7c68.667 0 129.667 29 183 87c4.66699 5.33301 10.667 8 18 8z" />
    <glyph glyph-name="uniE035" unicode="&#xe035;" 
d="M600 1175c77.333 0 153 -16.5 227 -49.5s138.167 -76.667 192.5 -131s98 -118.5 131 -192.5s49.5 -149.667 49.5 -227v-300c0 -6.66699 -2.5 -12.5 -7.5 -17.5s-10.833 -7.5 -17.5 -7.5h-50c-6.66699 0 -12.5 2.5 -17.5 7.5s-7.5 10.833 -7.5 17.5v300
c0 84.667 -23.5 161.834 -70.5 231.501s-108.5 123.5 -184.5 161.5s-157.667 57 -245 57s-169 -19 -245 -57s-137.5 -91.833 -184.5 -161.5s-70.5 -146.834 -70.5 -231.501v-300c0 -6.66699 -2.5 -12.5 -7.5 -17.5s-10.833 -7.5 -17.5 -7.5h-50
c-6.66699 0 -12.5 2.5 -17.5 7.5s-7.5 10.833 -7.5 17.5v300c0 77.333 16.5 153 49.5 227s76.667 138.167 131 192.5s118.5 98 192.5 131s149.667 49.5 227 49.5zM220 500h160c5.33301 0 10 -2 14 -6s6 -8.66699 6 -14v-460c0 -5.33301 -2 -10 -6 -14s-8.66699 -6 -14 -6
h-160c-5.33301 0 -10 2 -14 6s-6 8.66699 -6 14v460c0 5.33301 2 10 6 14s8.66699 6 14 6zM820 500h160c5.33301 0 10 -2 14 -6s6 -8.66699 6 -14v-460c0 -5.33301 -2 -10 -6 -14s-8.66699 -6 -14 -6h-160c-5.33301 0 -10 2 -14 6s-6 8.66699 -6 14v460c0 5.33301 2 10 6 14
s8.66699 6 14 6z" />
    <glyph glyph-name="uniE036" unicode="&#xe036;" 
d="M321 814l258 172c6 4 11 4.83301 15 2.5s6 -6.83301 6 -13.5v-750c0 -6.66699 -2 -11.167 -6 -13.5s-9 -1.5 -15 2.5l-258 172c-14 9.33301 -29.333 14 -46 14h-250c-6.66699 0 -12.5 2.5 -17.5 7.5s-7.5 10.833 -7.5 17.5v350c0 6.66699 2.5 12.5 7.5 17.5
s10.833 7.5 17.5 7.5h250c16.667 0 32 4.66699 46 14zM900 668l120 120c4.66699 4.66699 10.334 7 17.001 7s12.334 -2.33301 17.001 -7l34 -34c4.66699 -4.66699 7 -10.334 7 -17.001s-2.33301 -12.334 -7 -17.001l-120 -120l120 -120
c4.66699 -4.66699 7 -10.334 7 -17.001s-2.33301 -12.334 -7 -17.001l-34 -34c-4.66699 -4.66699 -10.334 -7 -17.001 -7s-12.334 2.33301 -17.001 7l-120 119l-120 -119c-4.66699 -4.66699 -10.334 -7 -17.001 -7s-12.334 2.33301 -17.001 7l-34 34
c-4.66699 4.66699 -7 10.334 -7 17.001s2.33301 12.334 7 17.001l119 120l-119 120c-4.66699 4.66699 -7 10.334 -7 17.001s2.33301 12.334 7 17.001l34 34c4.66699 5.33301 10.334 8 17.001 8s12.334 -2.66699 17.001 -8z" />
    <glyph glyph-name="uniE037" unicode="&#xe037;" 
d="M321 814l258 172c6 4 11 4.83301 15 2.5s6 -6.83301 6 -13.5v-750c0 -6.66699 -2 -11.167 -6 -13.5s-9 -1.5 -15 2.5l-258 172c-14 9.33301 -29.333 14 -46 14h-250c-6.66699 0 -12.5 2.5 -17.5 7.5s-7.5 10.833 -7.5 17.5v350c0 6.66699 2.5 12.5 7.5 17.5
s10.833 7.5 17.5 7.5h250c16.667 0 32 4.66699 46 14zM766 900l4 0.000976562c6.66699 -0.666992 12 -4 16 -10c64 -86 96 -182.667 96 -290c0 -102.667 -30 -196.334 -90 -281.001c-4 -6 -9.66699 -9.33301 -17 -10l-3 -1c-6 0 -11.333 2 -16 6l-29 23
c-4.66699 4.66699 -7.5 10.167 -8.5 16.5s0.5 12.166 4.5 17.499c48 68.667 72 145 72 229c0 88 -26 167.333 -78 238c-4 5.33301 -5.5 11.333 -4.5 18s4.16699 12.334 9.5 17.001l29 22c4.66699 3.33301 9.66699 5 15 5z" />
    <glyph glyph-name="uniE038" unicode="&#xe038;" 
d="M967 1004l3.00293 0.000976562c7.33301 -0.666992 13 -4 17 -10c90 -119.333 135 -251.333 135 -396c0 -70 -11.333 -138.833 -34 -206.5s-55.334 -129.5 -98.001 -185.5c-4.66699 -6 -10.334 -9.33301 -17.001 -10h-3c-6 0 -11.333 2 -16 6l-42 34
c-5.33301 4 -8.33301 9.33301 -9 16s1 12.667 5 18c74 100 111 209.333 111 328c0 60 -9.83301 118.667 -29.5 176s-47.834 109.666 -84.501 156.999c-4 6 -5.66699 12.333 -5 19s4 12 10 16l42 33c4.66699 3.33301 9.66699 5 15 5zM321.003 814.001l258 172
c6 4 11 4.83301 15 2.5s6 -6.83301 6 -13.5v-750c0 -6.66699 -2 -11.167 -6 -13.5s-9 -1.5 -15 2.5l-258 172c-14 9.33301 -29.333 14 -46 14h-250c-6.66699 0 -12.5 2.5 -17.5 7.5s-7.5 10.833 -7.5 17.5v350c0 6.66699 2.5 12.5 7.5 17.5s10.833 7.5 17.5 7.5h250
c16.667 0 32 4.66699 46 14zM766.003 900.001l4 0.00195312c6.66699 -0.666992 12 -4 16 -10c64 -86 96 -182.667 96 -290c0 -102.667 -30 -196.334 -90 -281.001c-4 -6 -9.66699 -9.33301 -17 -10l-3 -1c-6 0 -11.333 2 -16 6l-29 23
c-4.66699 4.66699 -7.5 10.167 -8.5 16.5s0.5 12.166 4.5 17.499c48 68.667 72 145 72 229c0 88 -26 167.333 -78 238c-4 5.33301 -5.5 11.5 -4.5 18.5s4.16699 12.5 9.5 16.5l29 22c4.66699 3.33301 9.66699 5 15 5z" />
    <glyph glyph-name="uniE039" unicode="&#xe039;" 
d="M500 900h100v-100h-100v-100h-400v-100h-100v600h500v-300zM1200 700h-200v-100h200v-200h-300v300h-200v300h-100v200h600v-500zM100 1100v-300h300v300h-300zM800 1100v-300h300v300h-300zM300 900h-100v100h100v-100zM1000 900h-100v100h100v-100zM300 500h200v-500
h-500v500h200v100h100v-100zM800 300h200v-100h-100v-100h-200v100h-100v100h100v200h-200v100h300v-300zM100 400v-300h300v300h-300zM300 200h-100v100h100v-100zM1200 200h-100v100h100v-100zM700 0h-100v100h100v-100zM1200 0h-300v100h300v-100z" />
    <glyph glyph-name="uniE040" unicode="&#xe040;" 
d="M100 200h-100v1000h100v-1000zM300 200h-100v1000h100v-1000zM700 200h-200v1000h200v-1000zM900 200h-100v1000h100v-1000zM1200 200h-200v1000h200v-1000zM400 0h-300v100h300v-100zM600 0h-100v91h100v-91zM800 0h-100v91h100v-91zM1100 0h-200v91h200v-91z" />
    <glyph glyph-name="uniE041" unicode="&#xe041;" 
d="M500 1200l682 -682c5.33301 -5.33301 8 -11.333 8 -18s-2.66699 -12.667 -8 -18l-464 -464c-5.33301 -5.33301 -11.333 -8 -18 -8s-12.667 2.66699 -18 8l-682 682l1 475c0 6.66699 2.5 12.5 7.5 17.5s10.833 7.5 17.5 7.5h474zM319.5 1024.5
c-19.667 19.667 -43.334 29.5 -71.001 29.5s-51.334 -9.83301 -71.001 -29.5s-29.5 -43.5 -29.5 -71.5s9.83301 -51.833 29.5 -71.5s43.334 -29.5 71.001 -29.5s51.334 9.83301 71.001 29.5s29.5 43.5 29.5 71.5s-9.83301 51.833 -29.5 71.5z" />
    <glyph glyph-name="uniE042" unicode="&#xe042;" 
d="M500 1200l682 -682c5.33301 -5.33301 8 -11.333 8 -18s-2.66699 -12.667 -8 -18l-464 -464c-5.33301 -5.33301 -11.333 -8 -18 -8s-12.667 2.66699 -18 8l-682 682l1 475c0 6.66699 2.5 12.5 7.5 17.5s10.833 7.5 17.5 7.5h474zM800 1200l682 -682
c5.33301 -5.33301 8 -11.333 8 -18s-2.66699 -12.667 -8 -18l-464 -464c-5.33301 -5.33301 -11.333 -8 -18 -8s-12.667 2.66699 -18 8l-56 56l424 426l-700 700h150zM319.5 1024.5c-19.667 19.667 -43.334 29.5 -71.001 29.5s-51.334 -9.83301 -71.001 -29.5
s-29.5 -43.5 -29.5 -71.5s9.83301 -51.833 29.5 -71.5s43.334 -29.5 71.001 -29.5s51.334 9.83301 71.001 29.5s29.5 43.5 29.5 71.5s-9.83301 51.833 -29.5 71.5z" />
    <glyph glyph-name="uniE043" unicode="&#xe043;" 
d="M300 1200l824.997 -0.00292969c50 0 75 -25 75 -75v-900c0 -16.667 -6 -31 -18 -43l-64 -64c-5.33301 -5.33301 -9.66602 -7.16602 -12.999 -5.49902s-5 5.83398 -5 12.501v950c0 6.66699 -2.5 12.5 -7.5 17.5s-10.833 7.5 -17.5 7.5h-700c-16.667 0 -31 -6 -43 -18
l-64 -64c-5.33301 -5.33301 -7.16602 -9.66602 -5.49902 -12.999s5.83398 -5 12.501 -5h700c6.66699 0 12.5 -2.5 17.5 -7.5s7.5 -10.833 7.5 -17.5v-950c0 -6.66699 -2.5 -12.5 -7.5 -17.5s-10.833 -7.5 -17.5 -7.5h-850c-6.66699 0 -12.5 2.5 -17.5 7.5
s-7.5 10.833 -7.5 17.5v975c0 16.667 6 31 18 43l139 139c12 12 26.333 18 43 18z" />
    <glyph glyph-name="uniE044" unicode="&#xe044;" 
d="M250 1200h800c14 0 25.833 -4.83301 35.5 -14.5s14.5 -21.5 14.5 -35.5v-1150l-450 444l-450 -445v1151c0 14 4.83301 25.833 14.5 35.5s21.5 14.5 35.5 14.5z" />
    <glyph glyph-name="uniE045" unicode="&#xe045;" 
d="M822 1200h-444.002c-7.33301 0 -13.666 -2.5 -18.999 -7.5s-8.33301 -10.833 -9 -17.5l-78 -301c-4.66699 -16 -2.33398 -31 6.99902 -45l57 -108c4 -6 9.83301 -11 17.5 -15s14.834 -6 21.501 -6h450c6.66699 0 13.834 2 21.501 6s13.5 9 17.5 15l62 108
c9.33301 14 11.666 29 6.99902 45l-83 301c-0.666992 6.66699 -3.66699 12.5 -9 17.5s-11.666 7.5 -18.999 7.5zM1175 800h-150c-6.66699 0 -13.667 -2.16699 -21 -6.5s-12.333 -9.5 -15 -15.5l-78 -156c-2.66699 -6 -7.66699 -11.167 -15 -15.5s-14.333 -6.5 -21 -6.5h-550
c-6.66699 0 -13.667 2.16699 -21 6.5s-12.333 9.5 -15 15.5l-78 156c-2.66699 6 -7.66699 11.167 -15 15.5s-14.333 6.5 -21 6.5h-150c-6.66699 0 -12.5 -2.5 -17.5 -7.5s-7.5 -10.833 -7.5 -17.5v-650c0 -6.66699 2.5 -12.5 7.5 -17.5s10.833 -7.5 17.5 -7.5h150
c6.66699 0 12.5 2.5 17.5 7.5s7.5 10.833 7.5 17.5v150c0 6.66699 2.5 12.5 7.5 17.5s10.833 7.5 17.5 7.5h750c6.66699 0 12.5 -2.5 17.5 -7.5s7.5 -10.833 7.5 -17.5v-150c0 -6.66699 2.5 -12.5 7.5 -17.5s10.833 -7.5 17.5 -7.5h150c6.66699 0 12.5 2.5 17.5 7.5
s7.5 10.833 7.5 17.5v650c0 6.66699 -2.5 12.5 -7.5 17.5s-10.833 7.5 -17.5 7.5zM849.998 200h-500.006c-6.66699 0 -13.167 -2.33301 -19.5 -7s-10.166 -10.334 -11.499 -17.001l-38 -152c-1.33301 -6.66699 -0.166016 -12.334 3.50098 -17.001s8.83398 -7 15.501 -7h600
c6.66699 0 11.834 2.33301 15.501 7s4.83398 10.334 3.50098 17.001l-38 152c-1.33301 6.66699 -5.16602 12.334 -11.499 17.001s-12.833 7 -19.5 7z" />
    <glyph glyph-name="uniE046" unicode="&#xe046;" 
d="M500 1100l200 0.00195312c37.333 0 71.5 -6.83301 102.5 -20.5s55.167 -30.334 72.5 -50.001s32 -39.334 44 -59.001s20.333 -36.5 25 -50.5l6 -20h150c27.333 0 50.833 -9.83301 70.5 -29.5s29.5 -43.167 29.5 -70.5v-600c0 -27.333 -9.83301 -50.833 -29.5 -70.5
s-43.167 -29.5 -70.5 -29.5h-1000c-27.333 0 -50.833 9.83301 -70.5 29.5s-29.5 43.167 -29.5 70.5v600c-0 27.333 9.83301 50.833 29.5 70.5s43.167 29.5 70.5 29.5h150c1.33301 5.33301 3.5 12.5 6.5 21.5s11 25 24 48s28 43.333 45 61s41 33.667 72 48
s65.167 21.5 102.5 21.5zM900 800.002v-100h100v100h-100zM600 730.002c-63.333 0 -117.5 -22.5 -162.5 -67.5s-67.5 -99.167 -67.5 -162.5s22.5 -117.5 67.5 -162.5s99.167 -67.5 162.5 -67.5s117.5 22.5 162.5 67.5s67.5 99.167 67.5 162.5s-22.5 117.5 -67.5 162.5
s-99.167 67.5 -162.5 67.5zM600 603.002c28.667 0 53 -10 73 -30s30 -44.333 30 -73s-10 -53 -30 -73s-44.333 -30 -73 -30s-53 10 -73 30s-30 44.333 -30 73s10 53 30 73s44.333 30 73 30z" />
    <glyph glyph-name="uniE047" unicode="&#xe047;" 
d="M681 1199l384.998 -998.001c13.333 -33.333 33.333 -64 60 -92c12 -12.667 24.167 -22.5 36.5 -29.5s21.5 -10.833 27.5 -11.5l10 -2v-66h-417v66c35.333 0 60.333 14.5 75 43.5s16.334 58.5 5.00098 88.5l-82 222h-391l-92 -234c-7.33301 -22.667 -9.5 -41.667 -6.5 -57
s11.5 -27.666 25.5 -36.999s29.333 -16 46 -20s35 -6 55 -6v-66h-365v66c37.333 16 65.333 33.333 84 52c8 8 16.333 18.167 25 30.5s15.334 22.833 20.001 31.5l7 13l399 1006h93zM415.998 520.999h340l-162 457z" />
    <glyph glyph-name="uniE048" unicode="&#xe048;" 
d="M753 641c3.33301 -0.666992 8.16602 -2.1709 14.499 -4.50391s18.333 -7.5 36 -15.5s34.5 -16.833 50.5 -26.5s33.833 -23 53.5 -40s36.5 -35.167 50.5 -54.5s25.833 -42.666 35.5 -69.999s14.5 -56.333 14.5 -87c0 -44.667 -9.16699 -86.5 -27.5 -125.5
s-42.166 -71.5 -71.499 -97.5s-62.166 -48.167 -98.499 -66.5s-72.5 -31.833 -108.5 -40.5s-70 -13 -102 -13h-500v89c27.333 4.66699 50.833 15.5 70.5 32.5s29.5 38.833 29.5 65.5v827c0 16 -0.166992 27.333 -0.5 34s-1.5 14.667 -3.5 24s-4.83301 15.833 -8.5 19.5
s-9.33398 8.16699 -17.001 13.5s-17 9.5 -28 12.5l-42.5 11.5v71l471 -1c38 0 76.5 -6.83301 115.5 -20.5s75 -32.667 108 -57s59.833 -55.666 80.5 -93.999s31 -79.833 31 -124.5c0 -34 -5.16699 -66.167 -15.5 -96.5s-23 -55.166 -38 -74.499s-30 -36.166 -45 -50.499
s-27.833 -24.5 -38.5 -30.5zM400 699.996l139 0.000976562c52 0 95.5 16.167 130.5 48.5s52.5 73.166 52.5 122.499c0 27.333 -2.83301 50.833 -8.5 70.5s-15.5 38.167 -29.5 55.5s-34.833 30.5 -62.5 39.5s-62.167 13.5 -103.5 13.5h-118v-350zM400 199.997h216.002
c53.333 0 93.666 16.833 120.999 50.5s41 77.167 41 130.5c0 60 -20.833 111.5 -62.5 154.5s-93.834 64.5 -156.501 64.5h-159v-400z" />
    <glyph glyph-name="uniE049" unicode="&#xe049;" 
d="M877 1200l2 -56.998c-55.333 -12.667 -94 -27.834 -116 -45.501s-35.333 -39.834 -40 -66.501l-132 -839c-6 -32.667 -1.66699 -55.667 13 -69s46.667 -22 96 -26v-97h-500v97c124 10.667 190.667 43.334 200 98.001l173 832c2 11.333 3 21.333 3 30
s-0.5 16.167 -1.5 22.5s-4 12.166 -9 17.499s-9.5 9.5 -13.5 12.5s-11.167 6.33301 -21.5 10s-19 6.5 -26 8.5l-33.5 10c-8.66699 2 -15 3.66699 -19 5v57h425z" />
    <glyph glyph-name="uniE050" unicode="&#xe050;" 
d="M1300 900h-50.002c0 14 -1.33301 26.333 -4 37s-5.83398 19.5 -9.50098 26.5s-9.66699 12.833 -18 17.5s-15.666 8.33398 -21.999 11.001s-15.833 4.5 -28.5 5.5s-23 1.66699 -31 2s-20.333 0.5 -37 0.5h-200v-850c0 -14.667 8.33301 -26.167 25 -34.5
s33.334 -12.833 50.001 -13.5l25 -2v-100h-400v100c2.66699 0 6.33398 0.166992 11.001 0.5s12.667 1.33301 24 3s21.333 4 30 7s16.667 8 24 15s11 15.167 11 24.5v850h-200c-16.667 0 -29 -0.166992 -37 -0.5s-18.333 -1 -31 -2s-22.167 -2.83301 -28.5 -5.5
s-13.666 -6.33398 -21.999 -11.001s-14.333 -10.5 -18 -17.5s-6.83398 -15.833 -9.50098 -26.5s-4 -23 -4 -37h-50v300h1000v-300zM174.998 1000h-75v-800h75l-125 -167l-125 167h75v800h-75l125 167z" />
    <glyph glyph-name="uniE051" unicode="&#xe051;" 
d="M1100 900h-50.002c0 14 -1.33301 26.333 -4 37s-5.83398 19.5 -9.50098 26.5s-9.66699 12.833 -18 17.5s-15.666 8.33398 -21.999 11.001s-15.833 4.5 -28.5 5.5s-23 1.66699 -31 2s-20.333 0.5 -37 0.5h-200v-650c0 -14.667 8.33301 -26.167 25 -34.5
s33.334 -12.833 50.001 -13.5l25 -2v-100h-400v100c2.66699 0 6.33398 0.166992 11.001 0.5s12.667 1.33301 24 3s21.333 4 30 7s16.667 8 24 15s11 15.167 11 24.5v650h-200c-16.667 0 -29 -0.166992 -37 -0.5s-18.333 -1 -31 -2s-22.167 -2.83301 -28.5 -5.5
s-13.666 -6.33398 -21.999 -11.001s-14.333 -10.5 -18 -17.5s-6.83398 -15.833 -9.50098 -26.5s-4 -23 -4 -37h-50v300h1000v-300zM1167 50l-167 -125v75h-800v-75l-167 125l167 125v-75h800v75z" />
    <glyph glyph-name="uniE052" unicode="&#xe052;" 
d="M50 1100h600c14 0 25.833 -4.83301 35.5 -14.5s14.5 -21.5 14.5 -35.5v-100c0 -14 -4.83301 -25.833 -14.5 -35.5s-21.5 -14.5 -35.5 -14.5h-600c-14 0 -25.833 4.83301 -35.5 14.5s-14.5 21.5 -14.5 35.5v100c-0 14 4.83301 25.833 14.5 35.5s21.5 14.5 35.5 14.5z
M50 800h1000c14 0 25.833 -4.83301 35.5 -14.5s14.5 -21.5 14.5 -35.5v-100c0 -14 -4.83301 -25.833 -14.5 -35.5s-21.5 -14.5 -35.5 -14.5h-1000c-14 0 -25.833 4.83301 -35.5 14.5s-14.5 21.5 -14.5 35.5v100c-0 14 4.83301 25.833 14.5 35.5s21.5 14.5 35.5 14.5zM50 500
h800c14 0 25.833 -4.83301 35.5 -14.5s14.5 -21.5 14.5 -35.5v-100c0 -14 -4.83301 -25.833 -14.5 -35.5s-21.5 -14.5 -35.5 -14.5h-800c-14 0 -25.833 4.83301 -35.5 14.5s-14.5 21.5 -14.5 35.5v100c-0 14 4.83301 25.833 14.5 35.5s21.5 14.5 35.5 14.5zM50 200h1100
c14 0 25.833 -4.83301 35.5 -14.5s14.5 -21.5 14.5 -35.5v-100c0 -14 -4.83301 -25.833 -14.5 -35.5s-21.5 -14.5 -35.5 -14.5h-1100c-14 -0 -25.833 4.83301 -35.5 14.5s-14.5 21.5 -14.5 35.5v100c-0 14 4.83301 25.833 14.5 35.5s21.5 14.5 35.5 14.5z" />
    <glyph glyph-name="uniE053" unicode="&#xe053;" 
d="M250 1100h700c14 0 25.833 -4.83301 35.5 -14.5s14.5 -21.5 14.5 -35.5v-100c0 -14 -4.83301 -25.833 -14.5 -35.5s-21.5 -14.5 -35.5 -14.5h-700c-14 0 -25.833 4.83301 -35.5 14.5s-14.5 21.5 -14.5 35.5v100c0 14 4.83301 25.833 14.5 35.5s21.5 14.5 35.5 14.5z
M50 800h1100c14 0 25.833 -4.83301 35.5 -14.5s14.5 -21.5 14.5 -35.5v-100c0 -14 -4.83301 -25.833 -14.5 -35.5s-21.5 -14.5 -35.5 -14.5h-1100c-14 0 -25.833 4.83301 -35.5 14.5s-14.5 21.5 -14.5 35.5v100c-0 14 4.83301 25.833 14.5 35.5s21.5 14.5 35.5 14.5z
M250 500h700c14 0 25.833 -4.83301 35.5 -14.5s14.5 -21.5 14.5 -35.5v-100c0 -14 -4.83301 -25.833 -14.5 -35.5s-21.5 -14.5 -35.5 -14.5h-700c-14 0 -25.833 4.83301 -35.5 14.5s-14.5 21.5 -14.5 35.5v100c0 14 4.83301 25.833 14.5 35.5s21.5 14.5 35.5 14.5zM50 200
h1100c14 0 25.833 -4.83301 35.5 -14.5s14.5 -21.5 14.5 -35.5v-100c0 -14 -4.83301 -25.833 -14.5 -35.5s-21.5 -14.5 -35.5 -14.5h-1100c-14 -0 -25.833 4.83301 -35.5 14.5s-14.5 21.5 -14.5 35.5v100c-0 14 4.83301 25.833 14.5 35.5s21.5 14.5 35.5 14.5z" />
    <glyph glyph-name="uniE054" unicode="&#xe054;" 
d="M500 950v100c0 14 4.83301 25.833 14.5 35.5s21.5 14.5 35.5 14.5h600c14 0 25.833 -4.83301 35.5 -14.5s14.5 -21.5 14.5 -35.5v-100c0 -14 -4.83301 -25.833 -14.5 -35.5s-21.5 -14.5 -35.5 -14.5h-600c-14 0 -25.833 4.83301 -35.5 14.5s-14.5 21.5 -14.5 35.5z
M100 650v100c0 14 4.83301 25.833 14.5 35.5s21.5 14.5 35.5 14.5h1000c14 0 25.833 -4.83301 35.5 -14.5s14.5 -21.5 14.5 -35.5v-100c0 -14 -4.83301 -25.833 -14.5 -35.5s-21.5 -14.5 -35.5 -14.5h-1000c-14 0 -25.833 4.83301 -35.5 14.5s-14.5 21.5 -14.5 35.5z
M300 350v100c0 14 4.83301 25.833 14.5 35.5s21.5 14.5 35.5 14.5h800c14 0 25.833 -4.83301 35.5 -14.5s14.5 -21.5 14.5 -35.5v-100c0 -14 -4.83301 -25.833 -14.5 -35.5s-21.5 -14.5 -35.5 -14.5h-800c-14 0 -25.833 4.83301 -35.5 14.5s-14.5 21.5 -14.5 35.5zM0 50v100
c-0 14 4.83301 25.833 14.5 35.5s21.5 14.5 35.5 14.5h1100c14 0 25.833 -4.83301 35.5 -14.5s14.5 -21.5 14.5 -35.5v-100c0 -14 -4.83301 -25.833 -14.5 -35.5s-21.5 -14.5 -35.5 -14.5h-1100c-14 -0 -25.833 4.83301 -35.5 14.5s-14.5 21.5 -14.5 35.5z" />
    <glyph glyph-name="uniE055" unicode="&#xe055;" 
d="M50 1100h1100c14 0 25.833 -4.83301 35.5 -14.5s14.5 -21.5 14.5 -35.5v-100c0 -14 -4.83301 -25.833 -14.5 -35.5s-21.5 -14.5 -35.5 -14.5h-1100c-14 0 -25.833 4.83301 -35.5 14.5s-14.5 21.5 -14.5 35.5v100c-0 14 4.83301 25.833 14.5 35.5s21.5 14.5 35.5 14.5z
M50 800h1100c14 0 25.833 -4.83301 35.5 -14.5s14.5 -21.5 14.5 -35.5v-100c0 -14 -4.83301 -25.833 -14.5 -35.5s-21.5 -14.5 -35.5 -14.5h-1100c-14 0 -25.833 4.83301 -35.5 14.5s-14.5 21.5 -14.5 35.5v100c-0 14 4.83301 25.833 14.5 35.5s21.5 14.5 35.5 14.5zM50 500
h1100c14 0 25.833 -4.83301 35.5 -14.5s14.5 -21.5 14.5 -35.5v-100c0 -14 -4.83301 -25.833 -14.5 -35.5s-21.5 -14.5 -35.5 -14.5h-1100c-14 0 -25.833 4.83301 -35.5 14.5s-14.5 21.5 -14.5 35.5v100c-0 14 4.83301 25.833 14.5 35.5s21.5 14.5 35.5 14.5zM50 200h1100
c14 0 25.833 -4.83301 35.5 -14.5s14.5 -21.5 14.5 -35.5v-100c0 -14 -4.83301 -25.833 -14.5 -35.5s-21.5 -14.5 -35.5 -14.5h-1100c-14 -0 -25.833 4.83301 -35.5 14.5s-14.5 21.5 -14.5 35.5v100c-0 14 4.83301 25.833 14.5 35.5s21.5 14.5 35.5 14.5z" />
    <glyph glyph-name="uniE056" unicode="&#xe056;" 
d="M50 1100h100c14 0 25.833 -4.83301 35.5 -14.5s14.5 -21.5 14.5 -35.5v-100c0 -14 -4.83301 -25.833 -14.5 -35.5s-21.5 -14.5 -35.5 -14.5h-100c-14 0 -25.833 4.83301 -35.5 14.5s-14.5 21.5 -14.5 35.5v100c-0 14 4.83301 25.833 14.5 35.5s21.5 14.5 35.5 14.5z
M350 1100h800c14 0 25.833 -4.83301 35.5 -14.5s14.5 -21.5 14.5 -35.5v-100c0 -14 -4.83301 -25.833 -14.5 -35.5s-21.5 -14.5 -35.5 -14.5h-800c-14 0 -25.833 4.83301 -35.5 14.5s-14.5 21.5 -14.5 35.5v100c0 14 4.83301 25.833 14.5 35.5s21.5 14.5 35.5 14.5zM50 800
h100c14 0 25.833 -4.83301 35.5 -14.5s14.5 -21.5 14.5 -35.5v-100c0 -14 -4.83301 -25.833 -14.5 -35.5s-21.5 -14.5 -35.5 -14.5h-100c-14 0 -25.833 4.83301 -35.5 14.5s-14.5 21.5 -14.5 35.5v100c-0 14 4.83301 25.833 14.5 35.5s21.5 14.5 35.5 14.5zM350 800h800
c14 0 25.833 -4.83301 35.5 -14.5s14.5 -21.5 14.5 -35.5v-100c0 -14 -4.83301 -25.833 -14.5 -35.5s-21.5 -14.5 -35.5 -14.5h-800c-14 0 -25.833 4.83301 -35.5 14.5s-14.5 21.5 -14.5 35.5v100c0 14 4.83301 25.833 14.5 35.5s21.5 14.5 35.5 14.5zM50 500h100
c14 0 25.833 -4.83301 35.5 -14.5s14.5 -21.5 14.5 -35.5v-100c0 -14 -4.83301 -25.833 -14.5 -35.5s-21.5 -14.5 -35.5 -14.5h-100c-14 0 -25.833 4.83301 -35.5 14.5s-14.5 21.5 -14.5 35.5v100c-0 14 4.83301 25.833 14.5 35.5s21.5 14.5 35.5 14.5zM350 500h800
c14 0 25.833 -4.83301 35.5 -14.5s14.5 -21.5 14.5 -35.5v-100c0 -14 -4.83301 -25.833 -14.5 -35.5s-21.5 -14.5 -35.5 -14.5h-800c-14 0 -25.833 4.83301 -35.5 14.5s-14.5 21.5 -14.5 35.5v100c0 14 4.83301 25.833 14.5 35.5s21.5 14.5 35.5 14.5zM50 200h100
c14 0 25.833 -4.83301 35.5 -14.5s14.5 -21.5 14.5 -35.5v-100c0 -14 -4.83301 -25.833 -14.5 -35.5s-21.5 -14.5 -35.5 -14.5h-100c-14 -0 -25.833 4.83301 -35.5 14.5s-14.5 21.5 -14.5 35.5v100c-0 14 4.83301 25.833 14.5 35.5s21.5 14.5 35.5 14.5zM350 200h800
c14 0 25.833 -4.83301 35.5 -14.5s14.5 -21.5 14.5 -35.5v-100c0 -14 -4.83301 -25.833 -14.5 -35.5s-21.5 -14.5 -35.5 -14.5h-800c-14 -0 -25.833 4.83301 -35.5 14.5s-14.5 21.5 -14.5 35.5v100c0 14 4.83301 25.833 14.5 35.5s21.5 14.5 35.5 14.5z" />
    <glyph glyph-name="uniE057" unicode="&#xe057;" 
d="M400 0h-100v1100h100v-1100zM550 1100h100c14 0 25.833 -4.83301 35.5 -14.5s14.5 -21.5 14.5 -35.5v-100c0 -14 -4.83301 -25.833 -14.5 -35.5s-21.5 -14.5 -35.5 -14.5h-100c-14 0 -25.833 4.83301 -35.5 14.5s-14.5 21.5 -14.5 35.5v100
c0 14 4.83301 25.833 14.5 35.5s21.5 14.5 35.5 14.5zM550 800h500c14 0 25.833 -4.83301 35.5 -14.5s14.5 -21.5 14.5 -35.5v-100c0 -14 -4.83301 -25.833 -14.5 -35.5s-21.5 -14.5 -35.5 -14.5h-500c-14 0 -25.833 4.83301 -35.5 14.5s-14.5 21.5 -14.5 35.5v100
c0 14 4.83301 25.833 14.5 35.5s21.5 14.5 35.5 14.5zM267 550l-167 -125v75h-200v100h200v75zM550 500h300c14 0 25.833 -4.83301 35.5 -14.5s14.5 -21.5 14.5 -35.5v-100c0 -14 -4.83301 -25.833 -14.5 -35.5s-21.5 -14.5 -35.5 -14.5h-300
c-14 0 -25.833 4.83301 -35.5 14.5s-14.5 21.5 -14.5 35.5v100c0 14 4.83301 25.833 14.5 35.5s21.5 14.5 35.5 14.5zM550 200h600c14 0 25.833 -4.83301 35.5 -14.5s14.5 -21.5 14.5 -35.5v-100c0 -14 -4.83301 -25.833 -14.5 -35.5s-21.5 -14.5 -35.5 -14.5h-600
c-14 -0 -25.833 4.83301 -35.5 14.5s-14.5 21.5 -14.5 35.5v100c0 14 4.83301 25.833 14.5 35.5s21.5 14.5 35.5 14.5z" />
    <glyph glyph-name="uniE058" unicode="&#xe058;" 
d="M50 1100h100c14 0 25.833 -4.83301 35.5 -14.5s14.5 -21.5 14.5 -35.5v-100c0 -14 -4.83301 -25.833 -14.5 -35.5s-21.5 -14.5 -35.5 -14.5h-100c-14 0 -25.833 4.83301 -35.5 14.5s-14.5 21.5 -14.5 35.5v100c-0 14 4.83301 25.833 14.5 35.5s21.5 14.5 35.5 14.5z
M900 0h-100v1100h100v-1100zM50 800h500c14 0 25.833 -4.83301 35.5 -14.5s14.5 -21.5 14.5 -35.5v-100c0 -14 -4.83301 -25.833 -14.5 -35.5s-21.5 -14.5 -35.5 -14.5h-500c-14 0 -25.833 4.83301 -35.5 14.5s-14.5 21.5 -14.5 35.5v100c-0 14 4.83301 25.833 14.5 35.5
s21.5 14.5 35.5 14.5zM1100 600h200v-100h-200v-75l-167 125l167 125v-75zM50 500h300c14 0 25.833 -4.83301 35.5 -14.5s14.5 -21.5 14.5 -35.5v-100c0 -14 -4.83301 -25.833 -14.5 -35.5s-21.5 -14.5 -35.5 -14.5h-300c-14 0 -25.833 4.83301 -35.5 14.5
s-14.5 21.5 -14.5 35.5v100c-0 14 4.83301 25.833 14.5 35.5s21.5 14.5 35.5 14.5zM50 200h600c14 0 25.833 -4.83301 35.5 -14.5s14.5 -21.5 14.5 -35.5v-100c0 -14 -4.83301 -25.833 -14.5 -35.5s-21.5 -14.5 -35.5 -14.5h-600c-14 -0 -25.833 4.83301 -35.5 14.5
s-14.5 21.5 -14.5 35.5v100c-0 14 4.83301 25.833 14.5 35.5s21.5 14.5 35.5 14.5z" />
    <glyph glyph-name="uniE059" unicode="&#xe059;" 
d="M75 1000h750c20.667 0 38.334 -7.33301 53.001 -22s22 -32.334 22 -53.001v-650c0 -20.667 -7.33301 -38.334 -22 -53.001s-32.334 -22 -53.001 -22h-750c-20.667 0 -38.334 7.33301 -53.001 22s-22 32.334 -22 53.001v650c0 20.667 7.33301 38.334 22 53.001
s32.334 22 53.001 22zM1200 300l-300 300l300 300v-600z" />
    <glyph glyph-name="uniE060" unicode="&#xe060;" 
d="M44 1100h1112c12 0 22.333 -4.33301 31 -13s13 -19 13 -31v-1012c0 -12 -4.33301 -22.333 -13 -31s-19 -13 -31 -13h-1112c-12 -0 -22.333 4.33301 -31 13s-13 19 -13 31v1012c-0 12 4.33301 22.333 13 31s19 13 31 13zM100 1000v-737l247 182l298 -131l-74 156l293 318
l236 -288v500h-1000zM342 884c37.333 0 69 -13 95 -39s39 -57.5 39 -94.5s-13 -68.667 -39 -95s-57.667 -39.5 -95 -39.5s-69 13.167 -95 39.5s-39 58 -39 95s13 68.5 39 94.5s57.667 39 95 39z" />
    <glyph glyph-name="uniE062" unicode="&#xe062;" 
d="M648 1169c78 0 149.998 -19.999 215.998 -59.999s118.167 -93.667 156.5 -161s57.5 -140 57.5 -218c0 -76.667 -23.333 -162.667 -70 -258c-46 -72.667 -98.667 -147.834 -158 -225.501s-107 -137.5 -143 -179.5l-54 -62c-6 5.33301 -14.5 13.5 -25.5 24.5
s-32.167 33.5 -63.5 67.5l-91 103c-29.333 34.667 -62.166 77.334 -98.499 128.001s-68.166 100 -95.499 148c-40 88 -60 171 -60 249c0 58.667 11.333 115.167 34 169.5s53.167 101.666 91.5 141.999s84 72.5 137 96.5s108.5 36 166.5 36zM652.498 974.001
c-61 0 -113.167 -21.667 -156.5 -65s-65 -95.666 -65 -156.999s21.667 -113.5 65 -156.5s95.5 -64.5 156.5 -64.5s113.167 21.5 156.5 64.5s65 95.167 65 156.5s-21.667 113.666 -65 156.999s-95.5 65 -156.5 65z" />
    <glyph glyph-name="uniE063" unicode="&#xe063;" 
d="M600 1177c78 0 152.667 -15.167 224 -45.5s132.833 -71.333 184.5 -123s92.667 -113.167 123 -184.5s45.5 -146 45.5 -224s-15.167 -152.667 -45.5 -224s-71.333 -132.833 -123 -184.5s-113.167 -92.667 -184.5 -123s-146 -45.5 -224 -45.5s-152.667 15.167 -224 45.5
s-132.833 71.333 -184.5 123s-92.667 113.167 -123 184.5s-45.5 146 -45.5 224s15.167 152.667 45.5 224s71.333 132.833 123 184.5s113.167 92.667 184.5 123s146 45.5 224 45.5zM600 173v854c-77.333 0 -148.833 -19 -214.5 -57s-117.5 -89.833 -155.5 -155.5
s-57 -137.167 -57 -214.5s19 -148.833 57 -214.5s89.833 -117.5 155.5 -155.5s137.167 -57 214.5 -57z" />
    <glyph glyph-name="uniE064" unicode="&#xe064;" 
d="M554 1295c14 -48 33.168 -95.8301 57.501 -143.497s49.666 -91 75.999 -130l83 -118l82.5 -117c26 -38.333 49.333 -77 70 -116s37.167 -81 49.5 -126s18.5 -90.5 18.5 -136.5c0 -47.333 -8.5 -92.333 -25.5 -135s-39.833 -79.667 -68.5 -111
s-61.667 -58.666 -99 -81.999s-76.833 -41.333 -118.5 -54s-83.5 -20.334 -125.5 -23.001c-56 3.33301 -109.833 14.666 -161.5 33.999s-98.167 45.5 -139.5 78.5s-74.333 74.667 -99 125s-37 105.166 -37 164.499c0 46 6 91.5 18 136.5s28.5 87.167 49.5 126.5
s44.167 78.166 69.5 116.499l81.5 117.5l83.5 119c26.667 39.333 52.167 83 76.5 131s43.833 95.667 58.5 143zM344.001 710.003c-15.333 -22 -29.8311 -45.498 -43.498 -70.498s-27.167 -59.167 -40.5 -102.5s-19 -84.333 -17 -123
c0.666992 -24.667 5.5 -47.834 14.5 -69.501s19 -39 30 -52s24.667 -25.333 41 -37s29.166 -19.834 38.499 -24.501s20.333 -9.66699 33 -15c14 -4.66699 24.667 -5 32 -1s11.666 11.333 12.999 22l6 34c1.33301 6.66699 0.5 14 -2.5 22s-7.5 14.333 -13.5 19
c-3.33301 2.66699 -8 6.66699 -14 12s-15.833 18.833 -29.5 40.5s-24.5 46.167 -32.5 73.5c-17.333 59.333 -15.333 149.666 6 270.999c1.33301 7.33301 -0.666992 11 -6 11c-5.33301 0.666992 -10.333 -2.66602 -15 -9.99902z" />
    <glyph glyph-name="uniE065" unicode="&#xe065;" 
d="M1000 1013l108 114.997c1.33301 0.666992 3 1.33398 5 2.00098s6.33301 1.33398 13 2.00098s13.5 0.333984 20.5 -0.999023s15.333 -4.5 25 -9.5s19.167 -12.167 28.5 -21.5c14.667 -14.667 23.667 -29 27 -43s3.33301 -24.667 0 -32l-6 -10l-108 -115zM350 1100h400
c33.333 0 68.333 -4.33301 105 -13l-187 -187h-368c-27.333 0 -50.833 -9.83301 -70.5 -29.5s-29.5 -43.167 -29.5 -70.5v-500c0 -27.333 9.83301 -50.833 29.5 -70.5s43.167 -29.5 70.5 -29.5h500c27.333 0 50.833 9.83301 70.5 29.5s29.5 43.167 29.5 70.5v182l200 200
v-332c0 -110 -31.167 -195.833 -93.5 -257.5s-147.833 -92.5 -256.5 -92.5h-400c-110 0 -195.833 30.833 -257.5 92.5s-92.5 147.5 -92.5 257.5v400c-0 110 30.833 195.833 92.5 257.5s147.5 92.5 257.5 92.5zM1009 802.997l-362 -362l-161 -50l55 170l355 355z" />
    <glyph glyph-name="uniE066" unicode="&#xe066;" 
d="M350 1100h361c-109.333 -97.333 -181.333 -164 -216 -200h-195c-27.333 0 -50.833 -9.83301 -70.5 -29.5s-29.5 -43.167 -29.5 -70.5v-500c0 -27.333 9.83301 -50.833 29.5 -70.5s43.167 -29.5 70.5 -29.5h500c27.333 0 50.833 9.83301 70.5 29.5s29.5 43.167 29.5 70.5
l200 153v-103c0 -110 -30.833 -195.833 -92.5 -257.5s-147.5 -92.5 -257.5 -92.5h-400c-110 -0 -195.833 30.833 -257.5 92.5s-92.5 147.5 -92.5 257.5v400c-0 110 30.833 195.833 92.5 257.5s147.5 92.5 257.5 92.5zM824 1073l339.002 -301.004
c5.33301 -4.66699 8 -10.5 8 -17.5s-2.66699 -12.833 -8 -17.5l-340 -306c-4.66699 -4 -8.83398 -5.33301 -12.501 -4s-5.83398 5 -6.50098 11v203c-17.333 0.666992 -35.5 0.666992 -54.5 0s-45.167 -3.16699 -78.5 -7.5s-64 -10.166 -92 -17.499s-56.667 -19 -86 -35
s-52.666 -35 -69.999 -57c6.66699 39.333 17.667 75.333 33 108s32.5 59.834 51.5 81.501s40.667 41.167 65 58.5s47.166 30.833 68.499 40.5s43.666 17.834 66.999 24.501s42 11.167 56 13.5s27.333 3.83301 40 4.5v210c0.666992 6.66699 2.83398 10.834 6.50098 12.501
s8.16699 0.166992 13.5 -4.5z" />
    <glyph glyph-name="uniE067" unicode="&#xe067;" 
d="M350 1100h350c40 0 82.333 -7.66699 127 -23l-178 -177h-349c-27.333 0 -50.833 -9.83301 -70.5 -29.5s-29.5 -43.167 -29.5 -70.5v-500c0 -27.333 9.83301 -50.833 29.5 -70.5s43.167 -29.5 70.5 -29.5h500c27.333 0 50.833 9.83301 70.5 29.5s29.5 43.167 29.5 70.5v69
l200 200v-219c0 -110 -30.833 -195.833 -92.5 -257.5s-147.5 -92.5 -257.5 -92.5h-400c-110 -0 -195.833 30.833 -257.5 92.5s-92.5 147.5 -92.5 257.5v400c-0 110 30.833 195.833 92.5 257.5s147.5 92.5 257.5 92.5zM643 639l395 395c4.66699 4.66699 10.5 7 17.5 7
s12.833 -2.33301 17.5 -7l101 -101c4.66699 -4.66699 7 -10.5 7 -17.5s-2.33301 -12.833 -7 -17.5l-531 -532c-4.66699 -4.66699 -10.5 -7 -17.5 -7s-12.833 2.33301 -17.5 7l-248 248c-4.66699 4.66699 -7 10.5 -7 17.5s2.33301 12.833 7 17.5l101 101
c4.66699 4.66699 10.5 7 17.5 7s12.833 -2.33301 17.5 -7l111 -111c5.33301 -4.66699 11.333 -7 18 -7s12.667 2.33301 18 7z" />
    <glyph glyph-name="uniE068" unicode="&#xe068;" 
d="M318 918l264 264c5.33301 5.33301 11.333 8 18 8s12.667 -2.66699 18 -8l260 -264c4.66699 -5.33301 6.16699 -9.66602 4.5 -12.999s-5.83398 -5 -12.501 -5h-170v-200h200v173c0 6.66699 1.66699 10.667 5 12s7.66602 -0.333984 12.999 -5.00098l264 -260
c5.33301 -4.66699 8 -10.5 8 -17.5s-2.66699 -12.833 -8 -17.5l-264 -265c-5.33301 -4.66699 -9.66602 -6.33398 -12.999 -5.00098s-5 5.33301 -5 12v173h-200v-200h170c6.66699 0 10.834 -1.66699 12.501 -5s0.166992 -7.66602 -4.5 -12.999l-260 -264
c-5.33301 -5.33301 -11.333 -8 -18 -8s-12.667 2.66699 -18 8l-264 264c-5.33301 5.33301 -7.16602 9.66602 -5.49902 12.999s5.83398 5 12.501 5h175v200h-200v-173c0 -6.66699 -1.66699 -10.667 -5 -12s-7.66602 0.333984 -12.999 5.00098l-264 265
c-5.33301 4.66699 -8 10.5 -8 17.5s2.66699 12.833 8 17.5l264 260c5.33301 4.66699 9.66602 6.33398 12.999 5.00098s5 -5.33301 5 -12v-173h200v200h-175c-6.66699 0 -10.834 1.66699 -12.501 5s0.166016 7.66602 5.49902 12.999z" />
    <glyph glyph-name="uniE069" unicode="&#xe069;" 
d="M250 1100l100 0.00195312c14 0 25.833 -4.83301 35.5 -14.5s14.5 -21.5 14.5 -35.5v-438l464 453c10 9.33301 18.5 12.666 25.5 9.99902s10.5 -11 10.5 -25v-1000c0 -14 -3.5 -22.333 -10.5 -25s-15.5 0.666016 -25.5 9.99902l-464 453v-438
c0 -14 -4.83301 -25.833 -14.5 -35.5s-21.5 -14.5 -35.5 -14.5h-100c-14 -0 -25.833 4.83301 -35.5 14.5s-14.5 21.5 -14.5 35.5v1000c0 14 4.83301 25.833 14.5 35.5s21.5 14.5 35.5 14.5z" />
    <glyph glyph-name="uniE070" unicode="&#xe070;" 
d="M50 1100l100 0.00390625c14 0 25.833 -4.83301 35.5 -14.5s14.5 -21.5 14.5 -35.5v-438l464 453c10 9.33301 18.5 12.666 25.5 9.99902s10.5 -11 10.5 -25v-438l464 453c10 9.33301 18.5 12.666 25.5 9.99902s10.5 -11 10.5 -25v-1000c0 -14 -3.5 -22.333 -10.5 -25
s-15.5 0.666016 -25.5 9.99902l-464 453v-438c0 -14 -3.5 -22.333 -10.5 -25s-15.5 0.666016 -25.5 9.99902l-464 453v-438c0 -14 -4.83301 -25.833 -14.5 -35.5s-21.5 -14.5 -35.5 -14.5h-100c-14 -0 -25.833 4.83301 -35.5 14.5s-14.5 21.5 -14.5 35.5v1000
c-0 14 4.83301 25.833 14.5 35.5s21.5 14.5 35.5 14.5z" />
    <glyph glyph-name="uniE071" unicode="&#xe071;" 
d="M1200 1050v-999.996c0 -14 -3.5 -22.333 -10.5 -25s-15.5 0.666016 -25.5 9.99902l-464 453v-438c0 -14 -3.5 -22.333 -10.5 -25s-15.5 0.666016 -25.5 9.99902l-492 480c-10 9.33301 -15 21 -15 35s5 25.667 15 35l492 480c10 9.33301 18.5 12.666 25.5 9.99902
s10.5 -11 10.5 -25v-438l464 453c10 9.33301 18.5 12.666 25.5 9.99902s10.5 -11 10.5 -25z" />
    <glyph glyph-name="uniE072" unicode="&#xe072;" 
d="M243 1074l814 -498.002c12 -7.33301 18 -16 18 -26s-6 -18.667 -18 -26l-814 -498c-12 -7.33301 -22.167 -8.66602 -30.5 -3.99902s-12.5 14 -12.5 28v1000c0 14 4.16699 23.333 12.5 28s18.5 3.33398 30.5 -3.99902z" />
    <glyph glyph-name="uniE073" unicode="&#xe073;" 
d="M250 1000h200c14 0 25.833 -4.83301 35.5 -14.5s14.5 -21.5 14.5 -35.5v-800c0 -14 -4.83301 -25.833 -14.5 -35.5s-21.5 -14.5 -35.5 -14.5h-200c-14 0 -25.833 4.83301 -35.5 14.5s-14.5 21.5 -14.5 35.5v800c0 14 4.83301 25.833 14.5 35.5s21.5 14.5 35.5 14.5z
M650 1000h200c14 0 25.833 -4.83301 35.5 -14.5s14.5 -21.5 14.5 -35.5v-800c0 -14 -4.83301 -25.833 -14.5 -35.5s-21.5 -14.5 -35.5 -14.5h-200c-14 0 -25.833 4.83301 -35.5 14.5s-14.5 21.5 -14.5 35.5v800c0 14 4.83301 25.833 14.5 35.5s21.5 14.5 35.5 14.5z" />
    <glyph glyph-name="uniE074" unicode="&#xe074;" 
d="M1100 950v-800c0 -14 -4.83301 -25.833 -14.5 -35.5s-21.5 -14.5 -35.5 -14.5h-800c-14 0 -25.833 4.83301 -35.5 14.5s-14.5 21.5 -14.5 35.5v800c0 14 4.83301 25.833 14.5 35.5s21.5 14.5 35.5 14.5h800c14 0 25.833 -4.83301 35.5 -14.5s14.5 -21.5 14.5 -35.5z" />
    <glyph glyph-name="uniE075" unicode="&#xe075;" 
d="M500 612v437.996c0 14 3.5 22.333 10.5 25s15.5 -0.666016 25.5 -9.99902l492 -480c10 -9.33301 15 -21 15 -35s-5 -25.667 -15 -35l-492 -480c-10 -9.33301 -18.5 -12.666 -25.5 -9.99902s-10.5 11 -10.5 25v438l-464 -453c-10 -9.33301 -18.5 -12.666 -25.5 -9.99902
s-10.5 11 -10.5 25v1000c0 14 3.5 22.333 10.5 25s15.5 -0.666016 25.5 -9.99902z" />
    <glyph glyph-name="uniE076" unicode="&#xe076;" 
d="M1048 1102l100 1c13.333 0 25 -4.83301 35 -14.5s15 -21.5 15 -35.5l5 -1000c0 -14 -4.83301 -25.833 -14.5 -35.5s-21.5 -14.5 -35.5 -14.5l-100 -1c-14 0 -25.833 4.83301 -35.5 14.5s-14.5 21.5 -14.5 35.5l-2 437l-463 -454c-9.33301 -10 -17.5 -13.5 -24.5 -10.5
s-10.5 11.5 -10.5 25.5l-2 437l-462 -455c-10 -9.33301 -18.5 -12.5 -25.5 -9.5s-10.5 11.167 -10.5 24.5l-5 1000c0 14 3.5 22.5 10.5 25.5s15.5 -0.5 25.5 -10.5l466 -450l-2 438c0 13.333 3.5 21.5 10.5 24.5s15.5 -0.166992 25.5 -9.5l466 -451l-2 438
c0 14 4.83301 25.833 14.5 35.5s21.5 14.5 35.5 14.5z" />
    <glyph glyph-name="uniE077" unicode="&#xe077;" 
d="M850 1100l100 -0.00195312c14 0 25.833 -4.83301 35.5 -14.5s14.5 -21.5 14.5 -35.5v-1000c0 -14 -4.83301 -25.833 -14.5 -35.5s-21.5 -14.5 -35.5 -14.5h-100c-14 0 -25.833 4.83301 -35.5 14.5s-14.5 21.5 -14.5 35.5v438l-464 -453
c-10 -9.33301 -18.5 -12.666 -25.5 -9.99902s-10.5 11 -10.5 25v1000c0 14 3.5 22.333 10.5 25s15.5 -0.666016 25.5 -9.99902l464 -453v438c0 14 4.83301 25.833 14.5 35.5s21.5 14.5 35.5 14.5z" />
    <glyph glyph-name="uniE078" unicode="&#xe078;" 
d="M686 1081l501 -540c10 -10 13.5 -18.667 10.5 -26s-11.833 -11 -26.5 -11h-1042c-14.667 0 -23.5 3.66699 -26.5 11s0.5 16 10.5 26l501 540c10 10 22 15 36 15s26 -5 36 -15zM150 400h1000c14 0 25.833 -4.83301 35.5 -14.5s14.5 -21.5 14.5 -35.5v-100
c0 -14 -4.83301 -25.833 -14.5 -35.5s-21.5 -14.5 -35.5 -14.5h-1000c-14 0 -25.833 4.83301 -35.5 14.5s-14.5 21.5 -14.5 35.5v100c0 14 4.83301 25.833 14.5 35.5s21.5 14.5 35.5 14.5z" />
    <glyph glyph-name="uniE079" unicode="&#xe079;" 
d="M885 900l-352 -353l352 -353l-197 -198l-552 552l552 550z" />
    <glyph glyph-name="uniE080" unicode="&#xe080;" 
d="M1064 547l-551 -551l-198 198l353 353l-353 353l198 198z" />
    <glyph glyph-name="uniE081" unicode="&#xe081;" 
d="M600 1177c78 0 152.667 -15.167 224 -45.5s132.833 -71.333 184.5 -123s92.667 -113.167 123 -184.5s45.5 -146 45.5 -224s-15.167 -152.667 -45.5 -224s-71.333 -132.833 -123 -184.5s-113.167 -92.667 -184.5 -123s-146 -45.5 -224 -45.5s-152.667 15.167 -224 45.5
s-132.833 71.333 -184.5 123s-92.667 113.167 -123 184.5s-45.5 146 -45.5 224s15.167 152.667 45.5 224s71.333 132.833 123 184.5s113.167 92.667 184.5 123s146 45.5 224 45.5zM650 900h-100c-14 0 -25.833 -4.83301 -35.5 -14.5s-14.5 -21.5 -14.5 -35.5v-150h-150
c-14 0 -25.833 -4.83301 -35.5 -14.5s-14.5 -21.5 -14.5 -35.5v-100c0 -14 4.83301 -25.833 14.5 -35.5s21.5 -14.5 35.5 -14.5h150v-150c0 -14 4.83301 -25.833 14.5 -35.5s21.5 -14.5 35.5 -14.5h100c14 0 25.833 4.83301 35.5 14.5s14.5 21.5 14.5 35.5v150h150
c14 0 25.833 4.83301 35.5 14.5s14.5 21.5 14.5 35.5v100c0 14 -4.83301 25.833 -14.5 35.5s-21.5 14.5 -35.5 14.5h-150v150c0 14 -4.83301 25.833 -14.5 35.5s-21.5 14.5 -35.5 14.5z" />
    <glyph glyph-name="uniE082" unicode="&#xe082;" 
d="M600 1177c78 0 152.667 -15.167 224 -45.5s132.833 -71.333 184.5 -123s92.667 -113.167 123 -184.5s45.5 -146 45.5 -224s-15.167 -152.667 -45.5 -224s-71.333 -132.833 -123 -184.5s-113.167 -92.667 -184.5 -123s-146 -45.5 -224 -45.5s-152.667 15.167 -224 45.5
s-132.833 71.333 -184.5 123s-92.667 113.167 -123 184.5s-45.5 146 -45.5 224s15.167 152.667 45.5 224s71.333 132.833 123 184.5s113.167 92.667 184.5 123s146 45.5 224 45.5zM850 700h-500c-14 0 -25.833 -4.83301 -35.5 -14.5s-14.5 -21.5 -14.5 -35.5v-100
c0 -14 4.83301 -25.833 14.5 -35.5s21.5 -14.5 35.5 -14.5h500c14 0 25.833 4.83301 35.5 14.5s14.5 21.5 14.5 35.5v100c0 14 -4.83301 25.833 -14.5 35.5s-21.5 14.5 -35.5 14.5z" />
    <glyph glyph-name="uniE083" unicode="&#xe083;" 
d="M600 1177c78 0 152.667 -15.167 224 -45.5s132.833 -71.333 184.5 -123s92.667 -113.167 123 -184.5s45.5 -146 45.5 -224s-15.167 -152.667 -45.5 -224s-71.333 -132.833 -123 -184.5s-113.167 -92.667 -184.5 -123s-146 -45.5 -224 -45.5s-152.667 15.167 -224 45.5
s-132.833 71.333 -184.5 123s-92.667 113.167 -123 184.5s-45.5 146 -45.5 224s15.167 152.667 45.5 224s71.333 132.833 123 184.5s113.167 92.667 184.5 123s146 45.5 224 45.5zM741.5 913c-8.33301 0 -15.5 -3 -21.5 -9l-120 -120l-120 120c-6 6 -13.167 9 -21.5 9
s-15.5 -3 -21.5 -9l-141 -141c-6 -6 -9 -13.167 -9 -21.5s3 -15.5 9 -21.5l120 -120l-120 -120c-6 -6 -9 -13.167 -9 -21.5s3 -15.5 9 -21.5l141 -141c6 -6 13.167 -9 21.5 -9s15.5 3 21.5 9l120 120l120 -120c6 -6 13.167 -9 21.5 -9s15.5 3 21.5 9l141 141
c6 6 9 13.167 9 21.5s-3 15.5 -9 21.5l-120 120l120 120c6 6 9 13.167 9 21.5s-3 15.5 -9 21.5l-141 141c-6 6 -13.167 9 -21.5 9z" />
    <glyph glyph-name="uniE084" unicode="&#xe084;" 
d="M600 1177c78 0 152.667 -15.167 224 -45.5s132.833 -71.333 184.5 -123s92.667 -113.167 123 -184.5s45.5 -146 45.5 -224s-15.167 -152.667 -45.5 -224s-71.333 -132.833 -123 -184.5s-113.167 -92.667 -184.5 -123s-146 -45.5 -224 -45.5s-152.667 15.167 -224 45.5
s-132.833 71.333 -184.5 123s-92.667 113.167 -123 184.5s-45.5 146 -45.5 224s15.167 152.667 45.5 224s71.333 132.833 123 184.5s113.167 92.667 184.5 123s146 45.5 224 45.5zM546 623l-84 85c-4.66699 4.66699 -10.5 7 -17.5 7s-13.167 -2.33301 -18.5 -7l-139 -139
c-4.66699 -5.33301 -7 -11.333 -7 -18s2.33301 -12.667 7 -18l242 -241c4.66699 -5.33301 10.5 -8 17.5 -8s12.833 2.66699 17.5 8l375 375c4.66699 4.66699 7 10.5 7 17.5s-2.33301 13.167 -7 18.5l-139 139c-4.66699 4.66699 -10.5 7 -17.5 7s-12.833 -2.33301 -17.5 -7z
" />
    <glyph glyph-name="uniE085" unicode="&#xe085;" 
d="M600 1177c78 0 152.667 -15.167 224 -45.5s132.833 -71.333 184.5 -123s92.667 -113.167 123 -184.5s45.5 -146 45.5 -224s-15.167 -152.667 -45.5 -224s-71.333 -132.833 -123 -184.5s-113.167 -92.667 -184.5 -123s-146 -45.5 -224 -45.5s-152.667 15.167 -224 45.5
s-132.833 71.333 -184.5 123s-92.667 113.167 -123 184.5s-45.5 146 -45.5 224s15.167 152.667 45.5 224s71.333 132.833 123 184.5s113.167 92.667 184.5 123s146 45.5 224 45.5zM588 941c-19.333 0 -38.998 -1.83398 -58.998 -5.50098s-41 -10.5 -63 -20.5
s-41.333 -22.833 -58 -38.5s-30.5 -36.667 -41.5 -63s-16.5 -56.166 -16.5 -89.499c0 -16.667 6.66699 -25 20 -25h131c20 -3.33301 31.667 0.333984 35 11.001c4 13.333 10.833 22.666 20.5 27.999s24.834 8 45.501 8c13.333 0 23.833 -3.5 31.5 -10.5
s11.5 -16.5 11.5 -28.5c0 -15.333 -2.33301 -26.666 -7 -33.999s-13.334 -13.333 -26.001 -18c-0.666992 0 -5.16699 -1.33301 -13.5 -4s-14.833 -5.16699 -19.5 -7.5l-20 -10.5c-8.66699 -4.66699 -16 -10.334 -22 -17.001s-12.167 -14.667 -18.5 -24s-11.5 -21 -15.5 -35
s-6.66699 -29.333 -8 -46c-0.666992 -5.33301 1.16602 -10.833 5.49902 -16.5s11.166 -8.5 20.499 -8.5h173c4.66699 0 12 2.66699 22 8s21.667 14.666 35 27.999s25.833 29.333 37.5 48s21.5 43.334 29.5 74.001s12 64 12 100c0 31.333 -5.66699 59 -17 83
s-25.5 43 -42.5 57s-36.833 25.5 -59.5 34.5s-44 15 -64 18s-39.667 4.5 -59 4.5zM675.002 399.999h-150c-6.66699 0 -12.5 -2.5 -17.5 -7.5s-7.5 -10.833 -7.5 -17.5v-150c0 -6.66699 2.5 -12.5 7.5 -17.5s10.833 -7.5 17.5 -7.5h150c6.66699 0 12.5 2.5 17.5 7.5
s7.5 10.833 7.5 17.5v150c0 6.66699 -2.5 12.5 -7.5 17.5s-10.833 7.5 -17.5 7.5z" />
    <glyph glyph-name="uniE086" unicode="&#xe086;" 
d="M600 1177c78 0 152.667 -15.167 224 -45.5s132.833 -71.333 184.5 -123s92.667 -113.167 123 -184.5s45.5 -146 45.5 -224s-15.167 -152.667 -45.5 -224s-71.333 -132.833 -123 -184.5s-113.167 -92.667 -184.5 -123s-146 -45.5 -224 -45.5s-152.667 15.167 -224 45.5
s-132.833 71.333 -184.5 123s-92.667 113.167 -123 184.5s-45.5 146 -45.5 224s15.167 152.667 45.5 224s71.333 132.833 123 184.5s113.167 92.667 184.5 123s146 45.5 224 45.5zM675 1000h-150c-6.66699 0 -12.5 -2.5 -17.5 -7.5s-7.5 -10.833 -7.5 -17.5v-150
c0 -6.66699 2.5 -12.5 7.5 -17.5s10.833 -7.5 17.5 -7.5h150c6.66699 0 12.5 2.5 17.5 7.5s7.5 10.833 7.5 17.5v150c0 6.66699 -2.5 12.5 -7.5 17.5s-10.833 7.5 -17.5 7.5zM675 700h-250c-6.66699 0 -12.5 -2.5 -17.5 -7.5s-7.5 -10.833 -7.5 -17.5v-50
c0 -6.66699 2.5 -12.5 7.5 -17.5s10.833 -7.5 17.5 -7.5h75v-200h-75c-6.66699 0 -12.5 -2.5 -17.5 -7.5s-7.5 -10.833 -7.5 -17.5v-50c0 -6.66699 2.5 -12.5 7.5 -17.5s10.833 -7.5 17.5 -7.5h350c6.66699 0 12.5 2.5 17.5 7.5s7.5 10.833 7.5 17.5v50
c0 6.66699 -2.5 12.5 -7.5 17.5s-10.833 7.5 -17.5 7.5h-75v275c0 6.66699 -2.5 12.5 -7.5 17.5s-10.833 7.5 -17.5 7.5z" />
    <glyph glyph-name="uniE087" unicode="&#xe087;" 
d="M525 1200h150c6.66699 0 12.5 -2.5 17.5 -7.5s7.5 -10.833 7.5 -17.5v-194c68.667 -18 128.167 -52.167 178.5 -102.5s84.5 -109.833 102.5 -178.5h194c6.66699 0 12.5 -2.5 17.5 -7.5s7.5 -10.833 7.5 -17.5v-150c0 -6.66699 -2.5 -12.5 -7.5 -17.5
s-10.833 -7.5 -17.5 -7.5h-194c-18 -68.667 -52.167 -128.167 -102.5 -178.5s-109.833 -84.5 -178.5 -102.5v-194c0 -6.66699 -2.5 -12.5 -7.5 -17.5s-10.833 -7.5 -17.5 -7.5h-150c-6.66699 0 -12.5 2.5 -17.5 7.5s-7.5 10.833 -7.5 17.5v194
c-68.667 18 -128.167 52.167 -178.5 102.5s-84.5 109.833 -102.5 178.5h-194c-6.66699 0 -12.5 2.5 -17.5 7.5s-7.5 10.833 -7.5 17.5v150c0 6.66699 2.5 12.5 7.5 17.5s10.833 7.5 17.5 7.5h194c18 68.667 52.167 128.167 102.5 178.5s109.833 84.5 178.5 102.5v194
c0 6.66699 2.5 12.5 7.5 17.5s10.833 7.5 17.5 7.5zM700 893v-168c0 -6.66699 -2.5 -12.5 -7.5 -17.5s-10.833 -7.5 -17.5 -7.5h-150c-6.66699 0 -12.5 2.5 -17.5 7.5s-7.5 10.833 -7.5 17.5v168c-45.333 -15.333 -85 -40 -119 -74s-58.667 -73.667 -74 -119h168
c6.66699 0 12.5 -2.5 17.5 -7.5s7.5 -10.833 7.5 -17.5v-150c0 -6.66699 -2.5 -12.5 -7.5 -17.5s-10.833 -7.5 -17.5 -7.5h-168c15.333 -45.333 40 -85 74 -119s73.667 -58.667 119 -74v168c0 6.66699 2.5 12.5 7.5 17.5s10.833 7.5 17.5 7.5h150
c6.66699 0 12.5 -2.5 17.5 -7.5s7.5 -10.833 7.5 -17.5v-168c45.333 15.333 85 40 119 74s58.667 73.667 74 119h-168c-6.66699 0 -12.5 2.5 -17.5 7.5s-7.5 10.833 -7.5 17.5v150c0 6.66699 2.5 12.5 7.5 17.5s10.833 7.5 17.5 7.5h168c-15.333 45.333 -40 85 -74 119
s-73.667 58.667 -119 74z" />
    <glyph glyph-name="uniE088" unicode="&#xe088;" 
d="M600 1177c78 0 152.667 -15.167 224 -45.5s132.833 -71.333 184.5 -123s92.667 -113.167 123 -184.5s45.5 -146 45.5 -224s-15.167 -152.667 -45.5 -224s-71.333 -132.833 -123 -184.5s-113.167 -92.667 -184.5 -123s-146 -45.5 -224 -45.5s-152.667 15.167 -224 45.5
s-132.833 71.333 -184.5 123s-92.667 113.167 -123 184.5s-45.5 146 -45.5 224s15.167 152.667 45.5 224s71.333 132.833 123 184.5s113.167 92.667 184.5 123s146 45.5 224 45.5zM600 1027c-77.333 0 -148.833 -19 -214.5 -57s-117.5 -89.833 -155.5 -155.5
s-57 -137.167 -57 -214.5s19 -148.833 57 -214.5s89.833 -117.5 155.5 -155.5s137.167 -57 214.5 -57s148.833 19 214.5 57s117.5 89.833 155.5 155.5s57 137.167 57 214.5s-19 148.833 -57 214.5s-89.833 117.5 -155.5 155.5s-137.167 57 -214.5 57zM759 823l64 -64
c4.66699 -4.66699 7 -10.5 7 -17.5s-2.33301 -12.833 -7 -17.5l-124 -124l124 -124c4.66699 -4.66699 7 -10.5 7 -17.5s-2.33301 -12.833 -7 -17.5l-64 -64c-4.66699 -4.66699 -10.5 -7 -17.5 -7s-12.833 2.33301 -17.5 7l-124 124l-124 -124
c-4.66699 -4.66699 -10.5 -7 -17.5 -7s-12.833 2.33301 -17.5 7l-64 64c-4.66699 4.66699 -7 10.5 -7 17.5s2.33301 12.833 7 17.5l124 124l-124 124c-4.66699 4.66699 -7 10.5 -7 17.5s2.33301 12.833 7 17.5l64 64c4.66699 4.66699 10.5 7 17.5 7s12.833 -2.33301 17.5 -7
l124 -124l124 124c4.66699 4.66699 10.5 7 17.5 7s12.833 -2.33301 17.5 -7z" />
    <glyph glyph-name="uniE089" unicode="&#xe089;" 
d="M600 1177c78 0 152.667 -15.167 224 -45.5s132.833 -71.333 184.5 -123s92.667 -113.167 123 -184.5s45.5 -146 45.5 -224s-15.167 -152.667 -45.5 -224s-71.333 -132.833 -123 -184.5s-113.167 -92.667 -184.5 -123s-146 -45.5 -224 -45.5s-152.667 15.167 -224 45.5
s-132.833 71.333 -184.5 123s-92.667 113.167 -123 184.5s-45.5 146 -45.5 224s15.167 152.667 45.5 224s71.333 132.833 123 184.5s113.167 92.667 184.5 123s146 45.5 224 45.5zM600 1027c-77.333 0 -148.833 -19 -214.5 -57s-117.5 -89.833 -155.5 -155.5
s-57 -137.167 -57 -214.5s19 -148.833 57 -214.5s89.833 -117.5 155.5 -155.5s137.167 -57 214.5 -57s148.833 19 214.5 57s117.5 89.833 155.5 155.5s57 137.167 57 214.5s-19 148.833 -57 214.5s-89.833 117.5 -155.5 155.5s-137.167 57 -214.5 57zM782 788l106 -106
c4.66699 -4.66699 7 -10.5 7 -17.5s-2.33301 -12.833 -7 -17.5l-320 -321c-5.33301 -4.66699 -11.333 -7 -18 -7s-12.667 2.33301 -18 7l-202 203c-5.33301 4.66699 -8 10.5 -8 17.5s2.66699 12.833 8 17.5l106 106c4.66699 5.33301 10.5 8 17.5 8s12.833 -2.66699 17.5 -8
l79 -79l197 197c4.66699 4.66699 10.5 7 17.5 7s12.833 -2.33301 17.5 -7z" />
    <glyph glyph-name="uniE090" unicode="&#xe090;" 
d="M600 1177c78 0 152.667 -15.167 224 -45.5s132.833 -71.333 184.5 -123s92.667 -113.167 123 -184.5s45.5 -146 45.5 -224s-15.167 -152.667 -45.5 -224s-71.333 -132.833 -123 -184.5s-113.167 -92.667 -184.5 -123s-146 -45.5 -224 -45.5s-152.667 15.167 -224 45.5
s-132.833 71.333 -184.5 123s-92.667 113.167 -123 184.5s-45.5 146 -45.5 224s15.167 152.667 45.5 224s71.333 132.833 123 184.5s113.167 92.667 184.5 123s146 45.5 224 45.5zM600 1027c-77.333 0 -148.833 -19 -214.5 -57s-117.5 -89.833 -155.5 -155.5
s-57 -137.167 -57 -214.5c0 -80 21.667 -155 65 -225l587 587c-70 43.333 -145 65 -225 65zM965 819l-584 -584c69.333 -41.333 142.333 -62 219 -62c77.333 0 148.833 19 214.5 57s117.5 89.833 155.5 155.5s57 137.167 57 214.5c0 76.667 -20.667 149.667 -62 219z" />
    <glyph glyph-name="uniE091" unicode="&#xe091;" 
d="M39 582l522 426.996c10.667 8.66699 19.834 11.334 27.501 8.00098s11.5 -12 11.5 -26v-291h550c14 0 25.833 -4.83301 35.5 -14.5s14.5 -21.5 14.5 -35.5v-200c0 -14 -4.83301 -25.833 -14.5 -35.5s-21.5 -14.5 -35.5 -14.5h-550v-291c0 -14 -3.83301 -22.667 -11.5 -26
s-16.834 -0.666016 -27.501 8.00098l-522 427c-10.667 8.66699 -16 19.334 -16 32.001s5.33301 23.334 16 32.001z" />
    <glyph glyph-name="uniE092" unicode="&#xe092;" 
d="M639 1009l522 -426.996c10.667 -8.66699 16 -19.334 16 -32.001s-5.33301 -23.334 -16 -32.001l-522 -427c-10.667 -8.66699 -19.834 -11.334 -27.501 -8.00098s-11.5 12 -11.5 26v291h-550c-14 0 -25.833 4.83301 -35.5 14.5s-14.5 21.5 -14.5 35.5v200
c0 14 4.83301 25.833 14.5 35.5s21.5 14.5 35.5 14.5h550v291c0 14 3.83301 22.667 11.5 26s16.834 0.666016 27.501 -8.00098z" />
    <glyph glyph-name="uniE093" unicode="&#xe093;" 
d="M682 1161l426.996 -522c8.66699 -10.667 11.334 -19.834 8.00098 -27.501s-12 -11.5 -26 -11.5h-291v-550c0 -14 -4.83301 -25.833 -14.5 -35.5s-21.5 -14.5 -35.5 -14.5h-200c-14 0 -25.833 4.83301 -35.5 14.5s-14.5 21.5 -14.5 35.5v550h-291
c-14 0 -22.667 3.83301 -26 11.5s-0.666016 16.834 8.00098 27.501l427 522c8.66699 10.667 19.334 16 32.001 16s23.334 -5.33301 32.001 -16z" />
    <glyph glyph-name="uniE094" unicode="&#xe094;" 
d="M550 1200h200.004c14 0 25.833 -4.83301 35.5 -14.5s14.5 -21.5 14.5 -35.5v-550h291c14 0 22.667 -3.83301 26 -11.5s0.666016 -16.834 -8.00098 -27.501l-427 -522c-8.66699 -10.667 -19.334 -16 -32.001 -16s-23.334 5.33301 -32.001 16l-427 522
c-8.66699 10.667 -11.334 19.834 -8.00098 27.501s12 11.5 26 11.5h291v550c0 14 4.83301 25.833 14.5 35.5s21.5 14.5 35.5 14.5z" />
    <glyph glyph-name="uniE095" unicode="&#xe095;" 
d="M639 1109l522.001 -426.996c10.667 -8.66699 16 -19.334 16 -32.001s-5.33301 -23.334 -16 -32.001l-522 -427c-10.667 -8.66699 -19.834 -11.334 -27.501 -8.00098s-11.5 12 -11.5 26v291c-62.667 -1.33301 -123.334 -8 -182.001 -20s-115.5 -29.333 -170.5 -52
s-104 -53.5 -147 -92.5s-76.5 -84.167 -100.5 -135.5c3.33301 70 12.333 134.5 27 193.5s37.167 114.667 67.5 167s68 97.333 113 135s100.667 68.167 167 91.5s141.5 37.333 225.5 42v262c0 14 3.83301 22.667 11.5 26s16.834 0.666016 27.501 -8.00098z" />
    <glyph glyph-name="uniE096" unicode="&#xe096;" 
d="M850 1200l299.999 0.000976562c14 0 25.833 -4.83301 35.5 -14.5s14.5 -21.5 14.5 -35.5v-300c0 -14 -3.5 -22.333 -10.5 -25s-15.167 0.666016 -24.5 9.99902l-94 94l-249 -249c-5.33301 -4.66699 -11.333 -7 -18 -7s-12.667 2.33301 -18 7l-106 106
c-4.66699 5.33301 -7 11.333 -7 18s2.33301 12.667 7 18l249 249l-94 94c-9.33301 9.33301 -12.666 17.5 -9.99902 24.5s11 10.5 25 10.5zM349.999 0.000976562l-299.999 -0.000976562c-14 -0 -25.833 4.83301 -35.5 14.5s-14.5 21.5 -14.5 35.5v300
c0 14 3.5 22.333 10.5 25s15.167 -0.666016 24.5 -9.99902l94 -94l249 249c5.33301 4.66699 11.333 7 18 7s12.667 -2.33301 18 -7l106 -106c4.66699 -5.33301 7 -11.333 7 -18s-2.33301 -12.667 -7 -18l-249 -249l94 -94c9.33301 -9.33301 12.666 -17.5 9.99902 -24.5
s-11 -10.5 -25 -10.5z" />
    <glyph glyph-name="uniE097" unicode="&#xe097;" 
d="M1014 1120l106.001 -106.001c4.66699 -5.33301 7 -11.333 7 -18s-2.33301 -12.667 -7 -18l-249 -249l94 -94c9.33301 -9.33301 12.666 -17.5 9.99902 -24.5s-11 -10.5 -25 -10.5h-300c-14 0 -25.833 4.83301 -35.5 14.5s-14.5 21.5 -14.5 35.5v300
c0 14 3.5 22.333 10.5 25s15.167 -0.666016 24.5 -9.99902l94 -94l249 249c5.33301 4.66699 11.333 7 18 7s12.667 -2.33301 18 -7zM250.001 599.999l299.999 0.000976562c14 0 25.833 -4.83301 35.5 -14.5s14.5 -21.5 14.5 -35.5v-300c0 -14 -3.5 -22.333 -10.5 -25
s-15.167 0.666016 -24.5 9.99902l-94 94l-249 -249c-5.33301 -4.66699 -11.333 -7 -18 -7s-12.667 2.33301 -18 7l-106 106c-4.66699 5.33301 -7 11.333 -7 18s2.33301 12.667 7 18l249 249l-94 94c-9.33301 9.33301 -12.666 17.5 -9.99902 24.5s11 10.5 25 10.5z" />
    <glyph glyph-name="uniE101" unicode="&#xe101;" 
d="M600 1177c78 0 152.667 -15.167 224 -45.5s132.833 -71.333 184.5 -123s92.667 -113.167 123 -184.5s45.5 -146 45.5 -224s-15.167 -152.667 -45.5 -224s-71.333 -132.833 -123 -184.5s-113.167 -92.667 -184.5 -123s-146 -45.5 -224 -45.5s-152.667 15.167 -224 45.5
s-132.833 71.333 -184.5 123s-92.667 113.167 -123 184.5s-45.5 146 -45.5 224s15.167 152.667 45.5 224s71.333 132.833 123 184.5s113.167 92.667 184.5 123s146 45.5 224 45.5zM704 900h-208.002c-13.333 0 -24 -4.83301 -32 -14.5s-10.667 -21.167 -8 -34.5l58 -302
c2.66699 -13.333 9.83398 -24.833 21.501 -34.5s24.167 -14.5 37.5 -14.5h54c13.333 0 25.833 4.83301 37.5 14.5s18.834 21.167 21.501 34.5l58 302c2.66699 13.333 0 24.833 -8 34.5s-18.667 14.5 -32 14.5zM674.998 400h-150c-6.66699 0 -12.5 -2.5 -17.5 -7.5
s-7.5 -10.833 -7.5 -17.5v-150c0 -6.66699 2.5 -12.5 7.5 -17.5s10.833 -7.5 17.5 -7.5h150c6.66699 0 12.5 2.5 17.5 7.5s7.5 10.833 7.5 17.5v150c0 6.66699 -2.5 12.5 -7.5 17.5s-10.833 7.5 -17.5 7.5z" />
    <glyph glyph-name="uniE102" unicode="&#xe102;" 
d="M260 1200c6 0 12.3369 -0.669922 19.0039 -2.00293s11.667 -2.66602 15 -3.99902l5 -2c14.667 -6.66699 29.334 -14.334 44.001 -23.001l196 -118c14 -8.66699 26 -16.667 36 -24c19.333 -14 31.666 -18 36.999 -12c7.33301 8.66699 23.666 20.334 48.999 35.001l196 118
c14.667 8.66699 29.667 16.334 45 23.001c11.333 4.66699 24 7 38 7c15.333 0 31 -5.5 47 -16.5s28.333 -22.167 37 -33.5l13 -16c9.33301 -14 15.333 -29 18 -45l25 -123l8 -44c0.666992 -6 3.5 -10.833 8.5 -14.5s10.833 -5.5 17.5 -5.5h61c6.66699 0 12.5 -2.5 17.5 -7.5
s7.5 -10.833 7.5 -17.5v-50c0 -6.66699 -2.5 -12.5 -7.5 -17.5s-10.833 -7.5 -17.5 -7.5h-50c-6.66699 0 -12.5 -2.5 -17.5 -7.5s-7.5 -10.833 -7.5 -17.5v-175h-400v300h-200v-300h-400v175c0 6.66699 -2.5 12.5 -7.5 17.5s-10.833 7.5 -17.5 7.5h-50
c-6.66699 0 -12.5 2.5 -17.5 7.5s-7.5 10.833 -7.5 17.5v50c0 6.66699 2.5 12.5 7.5 17.5s10.833 7.5 17.5 7.5h61c7.33301 0 13.333 1 18 3s7 4.66699 7 8c0 2.66699 3 20 9 52l25 128c3.33301 16.667 9.66602 31.667 18.999 45c1.33301 2 3 4.33301 5 7
s6.5 7.66699 13.5 15s14.167 13.833 21.5 19.5s16.166 10.834 26.499 15.501s20.166 7 29.499 7zM915.004 1079l-165.999 -162.001c-4.66699 -4.66699 -6.33398 -8.66699 -5.00098 -12s5.33301 -5 12 -5h219c6.66699 0 11.667 2.33301 15 7s4 10.334 2 17.001l-51 149
c-2 6.66699 -5.66699 10.667 -11 12s-10.333 -0.666992 -15 -6zM463.005 916.996l-177.001 157c-5.33301 4.66699 -10.666 6.33398 -15.999 5.00098s-9 -5.33301 -11 -12l-51 -143c-2 -6.66699 -1.33301 -12.334 2 -17.001s8.33301 -7 15 -7h231
c7.33301 0 11.5 1.66699 12.5 5s-0.833008 7.33301 -5.5 12zM500.004 -0.00390625h-375c-6.66699 0 -12.5 2.5 -17.5 7.5s-7.5 10.833 -7.5 17.5v375h400v-400zM1100 399.996v-375c0 -6.66699 -2.5 -12.5 -7.5 -17.5s-10.833 -7.5 -17.5 -7.5h-375v400h400z" />
    <glyph glyph-name="uniE103" unicode="&#xe103;" 
d="M1165 1190c5.33301 2 12.335 -0.169922 21.002 -6.50293s13 -12.166 13 -17.499c-1.33301 -118.667 -9.5 -226.5 -24.5 -323.5s-33.5 -178.833 -55.5 -245.5s-51 -124.834 -87 -174.501s-70.167 -89.167 -102.5 -118.5s-71.666 -52.166 -117.999 -68.499
s-85.833 -27.333 -118.5 -33s-72.667 -7.16699 -120 -4.5s-82.333 5.83398 -105 9.50098s-52.667 9.16699 -90 16.5c-40.667 8 -66.667 11.667 -78 11c-2.66699 0.666992 -6.83398 0.666992 -12.501 0s-17 -5.5 -34 -14.5s-34.5 -22.5 -52.5 -40.5l-153 -153
c-17.333 -16 -29.666 -20.833 -36.999 -14.5s-11 20.833 -11 43.5c0 42.667 14 76.667 42 102c5.33301 5.33301 22.166 20.333 50.499 45l66.5 58c12.667 11.333 24.334 27 35.001 47s15 40.333 13 61c-6 36.667 -9.33301 70.834 -10 102.501s1.66602 68.667 6.99902 111
s17.666 85.666 36.999 129.999s45.333 87.5 78 129.5c26 34 52.667 63.333 80 88s57.166 45.834 89.499 63.501s63.833 32.667 94.5 45s68.5 24.333 113.5 36s88 22 129 31s93.5 21.333 157.5 37s124.667 31.5 182 47.5zM1116 1098
c-5.33301 6 -12.8301 4.99805 -22.4971 -3.00195s-24.834 -24.667 -45.501 -50c-25.333 -31.333 -65 -65.833 -119 -103.5s-101.333 -67.5 -142 -89.5l-62 -33c-37.333 -20 -71.333 -39 -102 -57s-65.334 -40.667 -104.001 -68s-72.834 -54.166 -102.501 -80.499
s-58.167 -56.666 -85.5 -90.999s-48.666 -69.166 -63.999 -104.499c-16 -37.333 -26.333 -66 -31 -86s-4 -30.667 2 -32s16.5 4.5 31.5 17.5s33.5 32.833 55.5 59.5c16.667 20 48 45.167 94 75.5s87.833 56.166 125.5 77.499l147.5 81c46.667 24.667 86.167 47.667 118.5 69
s66.333 47.833 102 79.5s68.667 68.667 99 111s59.166 91.833 86.499 148.5c14.667 33.333 22.667 53.333 24 60s-0.666992 13 -6 19z" />
    <glyph glyph-name="uniE104" unicode="&#xe104;" 
d="M653 1231c-26 -44.667 -44.165 -88.332 -54.498 -130.999s-13.833 -80.834 -10.5 -114.501s11.5 -65.834 24.5 -96.501s28.833 -57.334 47.5 -80.001s39.834 -43.5 63.501 -62.5s46.5 -34.5 68.5 -46.5s43.667 -22 65 -30c-2.66699 4.66699 -8.5 16.334 -17.5 35.001
s-15.167 31.834 -18.5 39.501l-17 39.5c-8 18.667 -13.667 33 -17 43s-7.66602 24 -12.999 42s-8.5 32.833 -9.5 44.5s-1.66699 25.667 -2 42s1 30.666 4 42.999s7.5 25.333 13.5 39s13.667 26.5 23 38.5c64 -28 119 -63.833 165 -107.5s81 -89.667 105 -138
s41.333 -100.333 52 -156s15 -108.667 13 -159s-8.33301 -100.166 -19 -149.499c-8.66699 -36.667 -23.334 -72.167 -44.001 -106.5s-43.334 -63.333 -68.001 -87s-50.834 -45.167 -78.501 -64.5s-51.834 -34.333 -72.501 -45s-38.334 -18 -53.001 -22
c-48 -14.667 -90.333 -18.334 -127 -11.001c-20.667 4 -25 10.333 -13 19c4 2 9.66699 4.33301 17 7c8.66699 3.33301 19.5 10.333 32.5 21s26.667 25.334 41 44.001s27.166 39.834 38.499 63.501s18.5 50.834 21.5 81.501s0.833008 62.167 -6.5 94.5s-24 68 -50 107
s-60.667 77.5 -104 115.5c6.66699 -69.333 6.5 -132.333 -0.5 -189s-19.333 -103.5 -37 -140.5s-39.334 -68 -65.001 -93s-53.667 -42.333 -84 -52s-61.5 -13.334 -93.5 -11.001s-63.667 10.5 -95 24.5c-53.333 24 -97.166 62 -131.499 114s-52.166 109 -53.499 171
c-1.33301 15.333 -1.33301 31.833 0 49.5s2.83301 35.167 4.5 52.5s6.16699 36 13.5 56s16.5 40 27.5 60s26.333 41.5 46 64.5s42.834 45.833 69.501 68.5c-5.33301 -35.333 -7 -69.5 -5 -102.5s7.83301 -63 17.5 -90s21 -49.833 34 -68.5s27.833 -31.667 44.5 -39
s33 -8 49 -2c20.667 8.66699 33.5 20.667 38.5 36s3.5 33.666 -4.5 54.999s-17.667 42.833 -29 64.5s-23.333 46.667 -36 75s-21.334 53.5 -26.001 75.5c-10 56.667 -9.33301 110.5 2 161.5s29.166 93.833 53.499 128.5s52.833 65.5 85.5 92.5s63.834 47.333 93.501 61
s56.834 22.167 81.501 25.5z" />
    <glyph glyph-name="uniE105" unicode="&#xe105;" 
d="M600 1094c54.667 0 108.163 -7.5 160.496 -22.5s99 -34.667 140 -59s79.833 -51.833 116.5 -82.5s68.167 -62.334 94.5 -95.001s49 -64.334 68 -95.001s33.167 -58.167 42.5 -82.5s14 -43.5 14 -57.5s-4.66699 -33.167 -14 -57.5s-23.666 -51.833 -42.999 -82.5
s-42.166 -62.334 -68.499 -95.001s-57.833 -64.334 -94.5 -95.001s-75.5 -58.167 -116.5 -82.5s-87.667 -44 -140 -59s-105.5 -22.5 -159.5 -22.5s-107.167 7.5 -159.5 22.5s-99 34.667 -140 59s-79.833 51.833 -116.5 82.5s-68.167 62.334 -94.5 95.001
s-49.166 64.334 -68.499 95.001s-33.666 58.167 -42.999 82.5s-14 43.5 -14 57.5s4.66699 33.167 14 57.5s23.5 51.833 42.5 82.5s41.667 62.334 68 95.001s57.833 64.334 94.5 95.001s75.5 58.167 116.5 82.5s87.667 44 140 59s105.833 22.5 160.5 22.5zM887.996 829
c-10 10 -16.0029 14 -18.0029 12s-0.333008 -9.33301 5 -22c16.667 -38 25 -77.667 25 -119c0 -82.667 -29.333 -153.334 -88 -212.001s-129.334 -88 -212.001 -88s-153.334 29.333 -212.001 88s-88 129.334 -88 212.001c0 39.333 7.66699 77.333 23 114
c5.33301 12.667 6.83301 20 4.5 22s-8.16602 -2 -17.499 -12c-46.667 -46 -100 -107.333 -160 -184c-8.66699 -10.667 -13.667 -24.167 -15 -40.5s1.66699 -30.5 9 -42.5c14.667 -24 30.334 -47.667 47.001 -71s40 -50.666 70 -81.999s60.833 -58.333 92.5 -81
s69.334 -42.167 113.001 -58.5s88.167 -24.5 133.5 -24.5s89.833 8 133.5 24s81.334 35.5 113.001 58.5s62.5 50.167 92.5 81.5s53.333 58.5 70 81.5s32.334 46.5 47.001 70.5c7.33301 12 10.333 26.167 9 42.5s-6 30.166 -14 41.499c-60 78 -114.333 141 -163 189z
M447.993 727l-35.001 -35.999c-10 -10 -16.5 -22.833 -19.5 -38.5s-1.5 -29.5 4.5 -41.5c24.667 -45.333 55.667 -84 93 -116c10.667 -8.66699 23.5 -12.334 38.5 -11.001s27.167 7 36.5 17l35 34c9.33301 10 13.5 21.167 12.5 33.5s-6.5 23.5 -16.5 33.5
c-29.333 29.333 -59 68.333 -89 117c-7.33301 12 -16.666 18.667 -27.999 20s-22 -2.66699 -32 -12z" />
    <glyph glyph-name="uniE106" unicode="&#xe106;" 
d="M592 0l-148 -0.00292969l31 120c-60.667 13.333 -119.167 36.166 -175.5 68.499s-104.166 67.833 -143.499 106.5s-73.833 78.334 -103.5 119.001s-51.834 77.334 -66.501 110.001s-22 58 -22 76c0 14 4.66699 33.167 14 57.5s23.5 51.833 42.5 82.5
s41.667 62.334 68 95.001s57.833 64.334 94.5 95.001s75.5 58.167 116.5 82.5s87.667 44 140 59s105.833 22.5 160.5 22.5c40.667 0 82.667 -5 126 -15l32 121h148zM944 769.997l47.0029 181.001c72 -56.667 130.833 -120.667 176.5 -192s68.5 -124.333 68.5 -159
c0 -17.333 -6.5 -41 -19.5 -71s-32.833 -64 -59.5 -102s-57.667 -75.333 -93 -112s-78.333 -71.5 -129 -104.5s-103.334 -58.167 -158.001 -75.5l46 173c51.333 32.667 96.666 71.667 135.999 117s71.666 89 96.999 131c7.33301 12 10.333 26.167 9 42.5
s-6 30.166 -14 41.499c-36 46.667 -71.667 90 -107 130zM310.003 823.998c-46.667 -46 -100.001 -107.333 -160.001 -184c-8.66699 -10.667 -13.667 -24.167 -15 -40.5s1.66699 -30.5 9 -42.5c12 -20 25 -40 39 -60s33 -43.5 57 -70.5s48.667 -51.333 74 -73
s55.333 -42 90 -61s69.667 -32.833 105 -41.5l41 154c-71.333 12 -130.833 45.833 -178.5 101.5s-71.5 120.167 -71.5 193.5c0 39.333 7.66699 77.333 23 114c5.33301 12.667 6.83301 20 4.5 22s-8.16602 -2 -17.499 -12zM448.002 726.998l-35.001 -35.999
c-10 -10 -16.5 -22.833 -19.5 -38.5s-1.5 -29.5 4.5 -41.5c24.667 -45.333 55.667 -84 93 -116c10.667 -8.66699 23.5 -12.334 38.5 -11.001s27.167 7 36.5 17l12 11l22 86l-3 4c-29.333 29.333 -59 68.333 -89 117c-7.33301 12 -16.666 18.667 -27.999 20
s-22 -2.66699 -32 -12z" />
    <glyph glyph-name="uniE107" unicode="&#xe107;" 
d="M-90 100l642 1066c13.333 20.667 29.333 30.167 48 28.5s34.667 -13.5 48 -35.5l642 -1056c14 -21.333 16.5 -43.833 7.5 -67.5s-25.833 -35.5 -50.5 -35.5h-1294c-24.667 -0 -41.5 11.333 -50.5 34s-6.5 44.667 7.5 66zM155 200h345v75c0 6.66699 2.5 12.5 7.5 17.5
s10.833 7.5 17.5 7.5h150c6.66699 0 12.5 -2.5 17.5 -7.5s7.5 -10.833 7.5 -17.5v-75h345l-445 723zM496 700h208.002c13.333 0 24 -4.83301 32 -14.5s10.667 -21.167 8 -34.5l-58 -252c-2.66699 -13.333 -9.83398 -24.833 -21.501 -34.5s-24.167 -14.5 -37.5 -14.5h-54
c-13.333 0 -25.833 4.83301 -37.5 14.5s-18.834 21.167 -21.501 34.5l-58 252c-2.66699 13.333 0 24.833 8 34.5s18.667 14.5 32 14.5z" />
    </font>
</defs>
</svg>
